<svg xmlns="http://www.w3.org/2000/svg" xmlns:xlink="http://www.w3.org/1999/xlink">
	<defs>
		<path id="viacom-a" d="M0 157.2V1h1001.7v156.2"/>
		<path id="dgk-a" d="M6.092 3.826h480v474.355h-480"/>
		<path id="dgk-c" d="M6.092 3.826h480v474.355h-480"/>
	</defs>
	<mask id="viacom-b" fill="#fff">
		<use xlink:href="#viacom-a"/>
	</mask>
	<mask id="dgk-b" fill="#fff">
		<use xlink:href="#dgk-a"/>
	</mask>
	<mask id="dgk-d" fill="#fff">
		<use xlink:href="#dgk-c"/>
	</mask>
	<symbol id="logo" viewBox="0 0 375 237">
		<g fill="none" fill-rule="evenodd">
			<path fill="#5B2313" d="M155.8 237.4h219.4V-.7H155.8z"/>
			<path fill="#AA4223" d="M31 60.3c11.3-.2 20.5-9 20.5-19.6a20 20 0 0 0-20.4-19.4H7.6v39h23.5zM1 18C1 16.4 2.5 15 4.2 15h26.9C45.9 15 58 26.6 58 40.7 58 55 46 66.3 31 66.3l-23.4.3v35.3c0 1.7-1.5 3.1-3.4 3.1-1.7 0-3.2-1.4-3.2-3V18zM108.8 21.2H85.3v39h24a20 20 0 0 0 20-19.5 20 20 0 0 0-20.5-19.5zm19 63.6c0-6.6-3.5-10.7-7.7-13.7a31.3 31.3 0 0 0-11-4.5l-.7-.3h-23v35.8c0 1.7-1.6 3-3.5 3-1.7 0-3.2-1.3-3.2-3V18c0-1.6 1.3-3 3-3.1h27.1c15 0 27 11.5 27 25.8 0 10.3-6.3 19.2-15.5 23.3l1.3.7c6.3 3.3 12.8 9.9 12.8 20 0 5.4.5 8.6 1.2 10.5.6 1.6 1.2 2.1 1.4 2.2 1.5 0 3 .7 3.6 2.1.4 1.7-.4 3.5-2.1 4.1l-1.7.2h-.2a7.6 7.6 0 0 1-6.2-4.2c-1.6-3-2.5-7.2-2.5-14.8z"/>
			<path fill="#DF542A" d="M214.7 98.7A39.3 39.3 0 0 0 253.2 59a39 39 0 0 0-38.5-39.5 39 39 0 0 0-39 39.5 39.3 39.3 0 0 0 39 39.7zm0-85.7A45.6 45.6 0 0 1 260 59c-.1 25.4-20 46-45.3 46A45.7 45.7 0 0 1 169 59c.1-25.4 20.1-46 45.7-46zM292.6 28v73.9c0 1.7-1.4 3.1-3.2 3.1a3.2 3.2 0 0 1-3.2-3.1V19c-.5-1.3 0-2.6 1.2-3.5 1.5-.9 3.6-.6 4.6.8l57.4 76V18.5c0-1.7 1.5-3 3.2-3 2 0 3.4 1.3 3.4 3V102c0 1.7-1.5 3.1-3.4 3.1-1 0-1.9-.4-2.6-1.2 0 0-.4-.2-.5-.5L292.6 28M184.3 194.3h38.5l-19.2-48.5-19.3 48.5zm41 6.3h-43.4l-8.4 21.3c-.6 1.3-1.8 2.1-3.2 2.1l-1.2-.1c-1.6-.7-2.6-2.6-1.9-4.2l33-83.8c.6-1.1 2-1.9 3.3-1.9 1.5 0 2.8.8 3.3 2l33 83.7c.6 1.6-.2 3.5-1.8 4.2l-1.2.1c-1.3 0-2.6-.8-3.2-2l-8.4-21.4zM262 137c0-1.6 1.6-3 3.4-3 2 0 3.6 1.4 3.6 3v84c0 1.6-1.6 3-3.6 3-1.8 0-3.4-1.4-3.4-3v-84M330.6 139.8h-23.5v39h24a20 20 0 0 0 20-19.5 20 20 0 0 0-20.5-19.5zm19 63.6c0-6.6-3.5-10.7-7.7-13.7a31.3 31.3 0 0 0-11-4.5l-.7-.2h-23.1v35.7c0 1.7-1.5 3-3.4 3-1.8 0-3.3-1.3-3.3-3v-84.1c0-1.6 1.4-3 3-3.1h27.2c15 0 27 11.5 27 25.8 0 10.3-6.3 19.2-15.6 23.3l1.4.7c6.2 3.3 12.8 10 12.8 20.1 0 5.3.5 8.5 1.2 10.4.5 1.6 1.2 2.1 1.3 2.2 1.5 0 3.2.7 3.7 2.1.4 1.7-.4 3.5-2.2 4.1l-1.6.2h-.3a7.6 7.6 0 0 1-6-4.2c-1.7-3-2.7-7.2-2.7-14.8zM.1 237h20.6v-14.2H.1zM117 237h21v-14h-21zM23 237h21v-14H23zM47 237h21v-14H47zM70 237h21v-14H70zM94 237h20.6v-14.2H94zM.1 219.7h20.6v-14.2H.1zM117 220h21v-14h-21zM23 220h21v-14H23zM47 220h21v-14H47zM70 220h21v-14H70zM93.9 219.7h20.7v-14.2H93.9z"/>
			<path fill="#AA4223" d="M.1 202.5h20.6v-14.3H.1zM117 202h21v-14h-21zM47 202h21v-14H47zM70 202h21v-14H70zM94 202h21v-14H94zM47 185h21v-14H47zM70 185h21v-14H70zM94 185h21v-14H94z"/>
			<path fill="#5B2313" d="M47 168h21v-14H47zM94 168h21v-14H94zM47 150h21v-14H47z"/>
		</g>
	</symbol>
	<symbol id="microphone" viewBox="0 0 450 381" preserveAspectRatio="xMidYMin">
		<g fill="#0A0F2B" fill-rule="evenodd">
			<path d="M302.5 267c46.6 0 84.5-39.31 84.5-87.63V87.63C387 39.3 349.1 0 302.5 0S218 39.31 218 87.63v91.74c0 48.32 37.9 87.63 84.5 87.63zm0-24.65c-28.64 0-52.64-21.35-58.42-49.73h116.85c-5.8 28.38-29.79 49.73-58.43 49.73zm-59.77-62.98v-9.34h119.54v9.34l-.02.92h-119.5l-.02-.92zm0-21.67h119.54v-12.32H242.73v12.32zm29.63-124.43V78.4a6.17 6.17 0 0 0 12.36 0V27.5a56.66 56.66 0 0 1 11.6-2.5V78.4a6.17 6.17 0 0 0 12.36 0V24.98c4 .44 7.88 1.28 11.6 2.5V78.4a6.17 6.17 0 0 0 12.36 0V33.27c17.7 10.95 29.63 31.2 29.63 54.36v45.43H242.73V87.63c0-23.15 11.92-43.4 29.63-54.36z"/>
			<path d="M437.6 129h-33.94v54.67c0 56.06-45.6 101.66-101.66 101.66-56.06 0-101.66-45.6-101.66-101.66V129H166.4a12.4 12.4 0 0 0 0 24.8h9.14v29.87c0 65.54 50.13 119.6 114.06 125.84v46.7h-15.8a12.4 12.4 0 1 0 0 24.79h56.4a12.4 12.4 0 0 0 0-24.8h-15.8v-46.69c63.93-6.25 114.05-60.3 114.05-125.84v-29.88h9.15a12.4 12.4 0 1 0 0-24.79"/>
		</g>
	</symbol>
	<symbol id="headset" viewBox="0 0 450 381" preserveAspectRatio="xMidYMin">
		<path fill="#0A0F2B" fill-rule="evenodd" d="M443 293.33a60.67 60.67 0 0 0-31.94-53.4c.8-1.7 1.28-3.59 1.28-5.6v-47.62C412.34 83.76 328.6 0 225.68 0S39.02 83.76 39.02 186.7v47.64c0 1.95.44 3.79 1.21 5.45A60.67 60.67 0 0 0 8 293.33a60.7 60.7 0 0 0 54.14 60.26A28.15 28.15 0 0 0 90.24 381a28.17 28.17 0 0 0 28.13-28.14V233.8a28.17 28.17 0 0 0-28.13-28.15l-.32.02v-15.21c0-74.88 60.9-135.8 135.76-135.8 74.86 0 135.76 60.92 135.76 135.8v15.23c-.23 0-.45-.04-.68-.04a28.17 28.17 0 0 0-28.13 28.15v119.06A28.17 28.17 0 0 0 360.76 381a28.15 28.15 0 0 0 28.1-27.4A60.69 60.69 0 0 0 443 293.32zm-422.01 0a47.68 47.68 0 0 1 41.11-47.17v94.34A47.68 47.68 0 0 1 21 293.33zm84.4-59.53v119.06c0 8.35-6.8 15.15-15.15 15.15-8.35 0-15.15-6.8-15.15-15.15V233.8c0-8.36 6.8-15.16 15.15-15.16 8.35 0 15.15 6.8 15.15 15.16zM375.9 352.86c0 8.35-6.8 15.15-15.15 15.15-8.35 0-15.15-6.8-15.15-15.15V233.8c0-8.36 6.8-15.16 15.15-15.16 8.35 0 15.15 6.8 15.15 15.16v119.06zm-1.49-143.65v-18.75c0-82.04-66.72-148.79-148.74-148.79-82.02 0-148.74 66.75-148.74 148.79V209a28.3 28.3 0 0 0-11.95 12.44v-34.74c0-88.63 72.09-160.73 160.69-160.73s160.69 72.1 160.69 160.73v35.49a28.3 28.3 0 0 0-11.95-12.99zM388.9 340.5v-94.34A47.68 47.68 0 0 1 430 293.33c0 24.06-17.92 43.99-41.11 47.17z"/>
	</symbol>
	<symbol id="radio" viewBox="0 0 450 381" preserveAspectRatio="xMidYMin">
		<g fill="#0A0F2B" fill-rule="evenodd">
			<path d="M351.01 118.23H330.2c-.37-.24-.77-.48-1.17-.69L106.15 1.47A12.91 12.91 0 1 0 94.2 24.39l180.2 93.84H55.99a56.06 56.06 0 0 0-55.99 56V325c0 30.88 25.12 56 55.99 56H351A56.06 56.06 0 0 0 407 325V174.23c0-30.88-25.12-56-55.99-56zM381.16 325A30.18 30.18 0 0 1 351 355.15H56A30.18 30.18 0 0 1 25.84 325V174.23A30.19 30.19 0 0 1 56 144.08H351a30.19 30.19 0 0 1 30.15 30.15V325z"/>
			<path d="M49 262h222v-60H49v60zm12.93-12.86h196.14v-34.28H61.93v34.28zM323 202c-16.54 0-30 13.46-30 30s13.46 30 30 30 30-13.46 30-30-13.46-30-30-30zm0 47.14c-9.45 0-17.14-7.69-17.14-17.14s7.69-17.14 17.14-17.14 17.14 7.69 17.14 17.14-7.69 17.14-17.14 17.14z"/>
		</g>
	</symbol>
	<symbol id="facebook" viewBox="0 0 266.9 266.9">
		<path fill="#3C5A99" d="M248 262.3c8 0 14.3-6.4 14.3-14.2V18.8c0-7.8-6.4-14.2-14.2-14.2H18.8C11 4.6 4.6 11 4.6 18.8v229.3c0 7.8 6.4 14.2 14.2 14.2h229.3z"/>
		<path fill="#FFF" d="M182.4 262.3v-99.8H216l5-38.9h-38.5V98.8c0-11.3 3.1-19 19.3-19h20.6V45c-3.6-.4-15.8-1.5-30-1.5-29.7 0-50 18.1-50 51.4v28.7h-33.6v38.9h33.5v99.8h40.2z"/>
	</symbol>
	<symbol id="viacom" viewBox="0 0 1021 162">
		<g fill="none" fill-rule="evenodd" transform="matrix(1 0 0 -1 12 161.2)">
			<g fill="#fff" fill-rule="nonzero" mask="url(#b)">
				<path d="M190.3 155.8V22.4c0-10.4 6-18 19.5-18H231v151.4h-40.7zM893.6 47.3l-30.5 87.4c-3 9.4-7.6 21-28.5 21h-47.8V4.6h16c12.4 0 20.2 5.5 20.2 18.3v105.6h.6l46.6-124h43.5l46.6 124h.7V22.6c0-10.6 5.7-18.1 20-18.1h20.2v151.3h-45c-15.8 0-25.6-4.5-30.4-18.6l-31.4-90h-.8zM87 45.8l-37 97.1c-2.7 7.1-6.3 12.9-19.8 12.9H0L62 4.5h45.2l64.4 151.3h-26.7c-11.4 0-15.9-5-18.7-12.3L87.5 45.8H87zM532.2 124h20.7c14.9 0 23.6 5.5 23.6 19v12.9h-59c-49.2 0-72.9-29.2-72.9-75.7 0-58 36-75.6 73-75.6h59v13c0 13.3-9.2 18.8-22.7 18.8h-21.7c-23.4 0-45.2 8.3-45.2 43.8 0 30.8 16.5 43.8 45.2 43.8zM374 61.1c0-15-6.9-26.9-27.2-26.9h-21.2c-14.9 0-23.6 4.1-23.6 16.1 0 11.7 8.1 16.3 23.6 16.3H374v-5.5zm-19.7 94.7h-83.2V144c0-10.2 5.2-20.2 19.7-20.2H344c22.4 0 30.1-7.3 30.1-25v-2.7H318c-42 0-57.2-19.4-57.2-45.7 0-32 21.4-46 57.2-46h37.4c49 0 59.6 24.6 59.6 57v37.6c0 35-13 56.7-60.6 56.7zM671.8 34.6c26.4 0 41.9 18.4 41.9 45.5 0 28.8-16.5 45.5-42 45.5-27 0-42.3-18.2-42.3-45.5 0-26.1 14.9-45.5 42.4-45.5zm0 122.8c49.4 0 84.6-27 84.6-77.3 0-48.1-32.5-77.5-84.6-77.5-51 0-84.9 28.2-84.9 77.5 0 48.7 33.6 77.3 84.9 77.3z"/>
			</g>
		</g>
	</symbol>
	<symbol id="mymuesli" viewBox="0 0 604 134">
		<g fill="none" fill-rule="evenodd">
			<path fill="#fff" fill-rule="nonzero" d="M455.2 59.5c0-17.1-13.4-28.6-30-28.6-19.5 0-35.5 10.9-35.5 35.3 0 25.1 14.7 37.2 35.9 37.2 14.7 0 29.6-8.9 29.6-22.7 0-3.7-2.4-6.2-5.6-6.2-2.4 0-4 1.2-5.4 2.5-2 1.7-7 5-13.3 5-8.2 0-12.5-3.7-14.6-9.3l32.4-5.2c4.4-.5 6.5-2.4 6.5-8zm-41-.1c-.1-5.8 1.5-13.8 7.8-13.8 5.7 0 7.2 6.1 7.2 11.3l-15 2.5zM275.4 31a47 47 0 0 0-27.5 6.6 37 37 0 0 0-23.5-6.6c-10 0-19.9 1.9-25.5 4.3-4.9 2-6 3.7-6 9V98c0 2.4 1.2 3.6 3.6 3.6h21.3c2.4 0 3.6-1.2 3.6-3.6V52.6c0-4 1.3-6.8 5.6-6.8s5.6 2.8 5.6 6.8V98c0 2.4 1.2 3.6 3.6 3.6h21.3c2.4 0 3.6-1.2 3.6-3.6V52.6c0-4 1.3-6.8 5.6-6.8s5.6 2.8 5.6 6.8V98c0 2.4 1.2 3.6 3.6 3.6h21.3c2.4 0 3.6-1.2 3.6-3.6V51.4c-.3-12.5-11.7-20.4-25.4-20.4zm100.9 1.8h-21.5c-2.4 0-3.6 1.2-3.6 3.6v45c0 3.3-2.1 5-5 5s-5-1.7-5-5v-45c0-2.4-1.2-3.6-3.6-3.6H316c-2.4 0-3.6 1.2-3.6 3.6v45.2c0 20.6 23 21.9 34.3 21.9 11.7 0 23.2-2.4 27.8-5 4.3-2.5 5.4-5.8 5.4-10.8V36.4c0-2.4-1.2-3.6-3.6-3.6zm112.9 15.6c0-2.5 1.6-4.5 4.6-4.5 3.1 0 4.9 1.6 6.6 5 2.1 4.3 6.5 6.9 11.6 6.9 6 0 10.4-3.5 10.4-9.3 0-8.5-10.2-15.5-28.6-15.5-17.8 0-30.7 7-30.7 21.3 0 23.2 34 19.3 34 31.6 0 2.7-2 4.3-4.5 4.3-3.6 0-5.6-2.1-7.6-5.8-2.1-4-6.6-6.8-12.2-6.8-6.9 0-11.2 3.9-11.2 10.1 0 8.8 10.2 17.9 31.6 17.9 19.8 0 31.1-9.7 31.1-22.6.1-25.3-35.1-20-35.1-32.6zM558.8 0h-21.5c-2.4 0-3.6 1.2-3.6 3.6V98c0 2.4 1.2 3.6 3.6 3.6h21.5c2.4 0 3.6-1.2 3.6-3.6V3.6c0-2.4-1.2-3.6-3.6-3.6zM600 32.8h-21.5c-2.4 0-3.6 1.2-3.6 3.6V98c0 2.4 1.2 3.6 3.6 3.6H600c2.4 0 3.6-1.2 3.6-3.6V36.4c0-2.4-1.2-3.6-3.6-3.6zm-10.7-5.2c9.2 0 14.6-4.8 14.6-10.6s-5.4-10.5-14.6-10.5-14.6 4.6-14.6 10.5c0 5.8 5.4 10.6 14.6 10.6z"/>
			<path fill="#fff" d="M186.4 36.4c0-2.4-1.2-3.6-3.6-3.6H165c-2.7 0-3.9.8-4.4 3.3l-5.7 26.3c-1.9 8.4-2.8 17.7-2.8 17.7h-.3s-.7-9.3-2.4-17.7l-5.6-26.3c-.5-2.5-1.7-3.3-4.4-3.3h-22.1c-2.4 0-3.6 1.2-3.6 3.6 0 .8.1 1.9.5 2.8l24 68.8-.5 1.9c-.5 1.7-2.1 3.7-4.5 3.7-3.5 0-4.8-2.9-10.6-2.9-5.4 0-10 3.7-10 10.2 0 7.7 6.2 13.3 19.1 13.3 17.1 0 26-9.6 30.8-24l23.1-70.9a7 7 0 0 0 .8-2.9M107.6 98V51.4c0-12.5-11.4-20.5-25.1-20.5A47 47 0 0 0 55 37.5C50.2 33.9 43 31 31.5 31c-10 0-19.9 1.9-25.5 4.3-4.9 2-6 3.7-6 9V98c0 2.4 1.2 3.6 3.6 3.6h21.3c2.4 0 3.6-1.2 3.6-3.6V52.6c0-4 1.3-6.8 5.6-6.8 4.2 0 5.6 2.8 5.6 6.8V98c0 2.4 1.2 3.6 3.6 3.6h21.3c2.4 0 3.6-1.2 3.6-3.6V52.6c0-4 1.3-6.8 5.6-6.8 4.2 0 5.6 2.8 5.6 6.8V98c0 2.4 1.2 3.6 3.6 3.6h21c2.4 0 3.6-1.2 3.6-3.6"/>
		</g>
	</symbol>
	<symbol id="oralb" viewBox="0 0 123 37">
		<path fill="#fff" fill-rule="evenodd" d="M103.68 36.32c9.908 0 17.942-8.033 17.942-17.943 0-9.911-8.034-17.945-17.942-17.945H18.833C8.925.432.888 8.466.888 18.377c0 9.91 8.037 17.942 17.945 17.942h84.847zM35.42 15.927c-.063 5.921-3.694 15.586-14.847 15.549-8.316 0-11.783-5.246-11.842-11.041-.051-8.427 5.561-15.654 14.851-15.634 8.13.019 11.904 5.081 11.839 11.126zm-18.582 4.929c.004 2.62 1.357 4.344 4.064 4.344 4.864 0 6.303-6.853 6.311-9.67.005-2.298-1.362-4.312-4.112-4.314-3.363-.001-6.266 3.436-6.263 9.64zm40.23-2.365h-9.919c-1.471 0-3.367.722-4.157 4.47l-1.71 7.971h-7.25l3.932-18.295h6.281v1.883c.91-.977 2.825-3.278 6.655-2.13l-.79 3.68c2.313-3.254 5.717-3.934 9.62-3.948 4.98-.01 9.918 1.96 8.924 6.59l-2.082 9.661c-.288 1.319-.017 1.869.286 2.55H59v-1.172c-4.563 3.28-11.715 1.775-11.705-3.854.014-4.661 4.628-5.681 5.702-5.874 4.998-.906 8.425-.816 8.75-2.213.402-1.725-4.333-1.893-4.68.68zm-2.525 6.797c0 2.215 4.777 2.324 5.97-2.746-2.866.87-5.971 1.041-5.97 2.746zM81.29 5.523L75.8 30.933h-7.414l5.486-25.41h7.42zm26.775 12.38c1.516 1.188 2.752 2.122 2.747 5.09-.004 2.208-1.747 7.94-10.072 7.94H86.09l2.3-10.695h-6.107l1.08-4.972h6.097l2.092-9.735h9.965c3.218 0 10.593-.548 10.63 5.872-.002 2.793-1.055 4.86-4.082 6.5zm-7.127 6.54c2.963 0 3.27-4.202.762-4.205h-5.549l-.908 4.206h5.695zm1.255-9.175c3.135 0 3.723-3.782.688-3.782h-4.845l-.815 3.782h4.972zm12.523 6.325a3.264 3.264 0 0 1-3.26-3.26 3.264 3.264 0 0 1 3.26-3.26 3.264 3.264 0 0 1 3.261 3.26 3.264 3.264 0 0 1-3.261 3.26zm0-5.994a2.736 2.736 0 0 0-2.733 2.734 2.736 2.736 0 0 0 2.733 2.734 2.738 2.738 0 0 0 2.736-2.734 2.738 2.738 0 0 0-2.736-2.734zm1.058 4.139h-.716l-.418-1.324h-.617l-.281 1.324h-.617l.667-3.135h1.423c.268 0 .617.007.82.146.245.183.318.481.227.801-.178.64-.568.838-.97.864l.482 1.324zm-.796-1.795c.35.007.612-.076.696-.471.088-.42-.36-.42-.665-.42h-.696l-.189.89h.854z"/>
	</symbol>
	<symbol id="take-two" viewBox="0 0 300 284">
		<g fill="none" fill-rule="evenodd">
			<path fill="#fff" d="M279.963-.08v1.197h3.991v9.578h1.197V1.117h3.592V-.08h-9.179M289.94 10.695h1.197v-8.78l3.193 8.78h1.197l3.192-9.179c.027.931.027 1.863 0 2.794v6.385h1.198V-.08h-1.996L295.128 9.1 291.935-.08h-1.995v10.775"/>
			<path fill="#fff" d="M202.146 254.523h-5.587v-14.765h-3.991v-4.39h13.569v4.39h-3.991v14.765M241.254 254.523h-5.587l-2.394-10.775-2.793 10.775h-5.188l-5.188-19.155h5.587l2.793 11.174 2.794-11.174h4.389l3.193 11.174 2.394-11.174h4.789l-5.188 19.155"/>
			<path fill="#fff" fill-rule="nonzero" d="M279.564 244.946c0 5.586-3.192 9.976-9.178 9.976-5.986 0-9.179-4.39-9.179-9.976 0-5.986 3.193-9.977 9.179-9.977 5.986 0 9.178 3.99 9.178 9.977m-11.972 0c0 1.995 0 5.586 2.794 5.586 2.793 0 2.793-3.99 2.793-5.586 0-1.996 0-5.587-2.793-5.587-2.394 0-2.794 3.99-2.794 5.587"/>
			<path fill="#fff" d="M45.713 265.297H51.3v17.56h-5.587zM72.051 282.856l-4.789-7.98-1.596-3.194.399 3.193v7.981h-3.99v-17.559h4.788l5.986 9.977-.399-5.188v-4.789h3.991v17.56H72.45M94.798 282.856H89.61v-13.169h-3.592v-3.99h12.371v3.99h-3.591v13.17M121.136 282.856h-13.169v-17.559h13.169v3.991h-7.981v2.793h6.385v3.991h-6.385v2.794h7.981v3.99"/>
			<path fill="#fff" fill-rule="nonzero" d="M140.69 282.857l-2.394-6.784H136.3v6.784h-5.187v-17.56h8.779c1.596 0 3.193 0 4.39 1.198 1.596.798 2.394 2.394 2.394 3.99 0 2.395-1.197 3.991-3.192 4.79l3.192 7.98h-5.986m-2.394-10.774c1.197 0 2.793 0 2.793-1.596l-.798-1.597h-3.99v3.193h1.995M165.033 279.664h-4.39l-1.197 3.193h-4.39l5.587-17.56h5.587l5.587 17.56h-5.587l-1.197-3.193m-.798-3.99l-1.197-5.188-1.597 5.187h2.794"/>
			<path fill="#fff" d="M194.165 276.87c-.4 3.991-3.592 6.386-7.583 6.386-5.187 0-7.98-3.991-7.98-8.78 0-5.188 2.394-9.178 7.98-9.178 4.39 0 7.184 2.394 7.583 6.784h-5.188c0-1.197-.4-3.193-2.395-3.193-2.394 0-2.394 3.991-2.394 5.587 0 1.597 0 4.789 2.394 4.789 1.597 0 2.395-1.596 2.395-3.192l5.188.399M211.724 282.856h-5.188v-13.169h-3.991v-3.99h12.77v3.99h-3.991v13.17M224.494 265.297h5.586v17.56h-5.586zM250.433 282.856h-5.188l-5.986-17.559h5.986l2.793 9.578v1.596l.798-1.596 2.794-9.578h4.39l-5.587 17.56M278.367 282.856h-13.169v-17.559h13.169v3.991h-7.981v2.793h6.385v3.991h-6.385v2.794h7.981v3.99"/>
			<path fill="#fff" fill-rule="nonzero" d="M84.821 250.931h-5.188l-1.197 3.991h-4.789l5.986-19.554h5.986l6.385 19.554H85.62l-.798-3.99m-1.197-3.991l-1.596-5.986-1.597 5.587h3.193"/>
			<path fill="#fff" d="M118.343 254.523l-3.193-7.183-1.995 2.793v4.39h-5.587v-19.155h5.587v7.981l5.188-7.981h5.187l-4.788 7.183 5.986 11.972h-6.385M154.657 254.523h-14.366v-19.155h14.366v4.39h-8.779v2.793h7.183v3.991l-7.183.399v3.192h8.779v4.39M54.891 254.922h-5.587v-14.765h-3.99v-4.789h13.568v4.79h-3.991v14.764M107.967 215.414H45.314V53.394H.22V1.516h151.644v51.878h-44.296v162.42"/>
			<path fill="#fff" d="M277.57 215.814H118.342v-47.888l71.033-53.474c12.77-11.174 27.934-23.944 27.934-42.301 0-11.972-7.582-21.949-19.953-21.949-19.953 0-25.54 19.953-26.338 36.315l-52.676-9.976c3.599-42.668 40.226-74.893 83.005-73.03 41.902 0 77.418 22.348 77.418 67.842 0 22.347-10.375 39.108-26.737 53.873l-48.287 35.916-5.188 3.193h81.41l-2.395 51.479"/>
		</g>
	</symbol>
	<symbol id="bwp" viewBox="0 0 205 41">
		<g fill="none" fill-rule="evenodd">
			<path fill="#fff" d="M10 .2v19c0 3.5 1.2 5.2 3.7 5.2 1.1 0 2-.4 2.7-1.1.7-.7 1.1-1.6 1.1-2.6 0-1.1-.3-2-1-2.7-.7-.7-1.6-1.1-2.6-1.1-.7 0-1.5.3-2.5.9V7.1c1.2-.1 2.1-.1 2.7-.1 3.7 0 6.8 1.3 9.4 4 2.6 2.6 3.9 5.8 3.9 9.6s-1.3 7-4 9.6c-2.7 2.6-5.9 3.9-9.8 3.9-1.9 0-3.8-.4-5.7-1.3-1.9-.9-3.4-2-4.6-3.4C1.2 26.9.2 23.6.2 19.7V.2H10zM31.7 7.8h9.8v14c0 1.1.1 1.9.3 2.3.2.4.6.6 1.2.6 1.1 0 1.6-1 1.6-2.9v-14h9.8v14c0 1.1.1 1.9.4 2.3.2.4.6.6 1.2.6 1.1 0 1.6-1 1.6-2.9v-14h9.8v16c0 2.9-1 5.4-2.9 7.5-2 2-4.4 3.1-7.2 3.1-2.9 0-5.5-1.2-7.8-3.7-2.5 2.4-5.1 3.7-7.7 3.7-3.3 0-5.9-1.2-7.8-3.5-1.6-1.9-2.3-4.5-2.3-8.1v-15zM82.4 40.8h-9.8V21.4c0-4 1-7.2 3.1-9.7 1.2-1.4 2.7-2.6 4.6-3.4C82.2 7.4 84.1 7 86 7c3.9 0 7.2 1.3 9.8 3.9 2.7 2.6 4 5.8 4 9.6 0 3.7-1.3 6.9-4 9.6-2.6 2.7-5.8 4-9.4 4-.6 0-1.5-.1-2.6-.2V23.1c.8.6 1.6 1 2.4 1 1 0 1.9-.4 2.6-1.1.7-.7 1.1-1.6 1.1-2.7 0-1-.4-1.9-1.1-2.6-.7-.7-1.6-1.1-2.7-1.1-2.5 0-3.8 1.7-3.8 5.2v19h.1z"/>
			<path d="M.2.2h204.5v40.6H.2z"/>
			<path fill="#fff" d="M108.6 3.5h1v33.4h-1z"/>
			<path fill="#fff" fill-rule="nonzero" d="M203.2 30.2c0 .5.4.8.8.8s.8-.4.8-.8-.4-.8-.8-.8c-.5 0-.8.4-.8.8zm-3.4.7h1l2.8-8.1h-1l-1.7 5.3c-.3.9-.5 1.5-.5 1.7 0-.2-.2-1.1-.5-1.8l-1.7-5.2h-1.1l2.7 8.1zm-5.3-.7c0 .5.4.8.8.8s.8-.4.8-.8-.4-.8-.8-.8-.8.4-.8.8zm-3.7-4.7c.5 0 .9.2 1.1.5.2.3.3.7.3 1.3h-2.7c0-1.1.5-1.8 1.3-1.8zm.4 4.7c-.6 0-1.1-.2-1.5-.7-.2-.3-.3-.7-.3-1.3v-.1h3.7V28c0-1.4-.2-2-.7-2.5-.4-.4-1-.7-1.6-.7-.7 0-1.3.3-1.8.8-.5.6-.7 1.2-.7 2.2 0 2 1 3.1 2.6 3.1.8 0 1.5-.3 2-.7l-.4-.6c-.3.5-.7.6-1.3.6zm-10.3-4.7c.5 0 .9.2 1.1.5.2.3.3.7.3 1.3h-2.7c0-1.1.5-1.8 1.3-1.8zm.4 4.7c-.6 0-1.1-.2-1.5-.7-.2-.3-.3-.7-.3-1.3v-.1h3.7V28c0-1.4-.2-2-.7-2.5-.4-.4-1-.7-1.6-.7-.7 0-1.3.3-1.8.8-.5.6-.7 1.2-.7 2.2 0 2 1 3.1 2.6 3.1.8 0 1.5-.3 2-.7l-.4-.6c-.2.5-.7.6-1.3.6zm-8-3.7c.5-.5 1-.8 1.6-.8.5 0 .9.2 1.1.7.2.3.3 1 .3 1.7s-.1 1.1-.2 1.5c-.2.4-.7.7-1.2.7s-1-.3-1.4-.8v-3h-.2zm-.9-.1v6.9l.9-.2v-2.8c.4.4 1 .7 1.6.7.8 0 1.4-.4 1.8-1.1.3-.5.5-1.1.5-2 0-1.1-.2-1.8-.7-2.3-.4-.5-1-.7-1.6-.7-.7 0-1.3.3-1.7.9v-.2c0-.3 0-.6-.1-.7l-1 .2c.2.2.3.7.3 1.3zm-9.4.1v4.4h.9v-4.4c.6-.6 1.1-.8 1.5-.8.3 0 .5.1.6.2.2.2.2.2.2.8v4.2h.9v-4.3l.1-.1c.2-.2.4-.4.6-.5.3-.2.6-.3.9-.3.5 0 .8.3.8.9V31h.9v-4.5c0-.9-.6-1.6-1.5-1.6-.6 0-1.3.4-1.9 1-.1-.2-.1-.3-.2-.4-.3-.4-.7-.6-1.2-.6-.3 0-.6.1-1 .3-.3.2-.5.3-.7.6 0-.2-.1-.6-.2-.8l-.9.2c.2.3.2.5.2 1.3zm-6.3 2.9c0 .3 0 .7.2.9.2.5.8.8 1.6.8s1.4-.3 1.9-.9c.1.4.2.6.6.9l.6-.6c-.2-.1-.2-.2-.3-.3-.1-.2-.1-.4-.1-1.1v-4.2l-.9.2v4.2c-.3.6-.9 1.1-1.5 1.1-.3 0-.5-.1-.7-.2-.3-.2-.3-.4-.3-1V25l-.9.2v4.2h-.2zm-5.7-2.9c.5-.5 1-.8 1.6-.8.5 0 .9.2 1.1.7.2.3.3 1 .3 1.7s-.1 1.1-.2 1.5c-.2.4-.7.7-1.2.7s-1-.3-1.4-.8v-3h-.2zm-.9-.1v6.9l.9-.2v-2.8c.4.4 1 .7 1.6.7.8 0 1.4-.4 1.8-1.1.3-.5.5-1.1.5-2 0-1.1-.2-1.8-.7-2.3-.4-.5-1-.7-1.6-.7-.7 0-1.3.3-1.7.9v-.2c0-.3 0-.6-.1-.7l-1 .2c.3.2.3.7.3 1.3zm-3.9-.9c.5 0 .9.2 1.1.5.2.3.3.7.3 1.3h-2.7c0-1.1.5-1.8 1.3-1.8zm.4 4.7c-.6 0-1.1-.2-1.5-.7-.2-.3-.3-.7-.3-1.3v-.1h3.7V28c0-1.4-.2-2-.7-2.5-.4-.4-1-.7-1.6-.7-.7 0-1.3.3-1.8.8-.5.6-.7 1.2-.7 2.2 0 2 1 3.1 2.6 3.1.8 0 1.5-.3 2-.7l-.4-.6c-.3.5-.7.6-1.3.6zm-11.7-3.7v4.4h.9v-4.4c.6-.6 1.1-.8 1.5-.8.3 0 .5.1.6.2.2.2.2.2.2.8v4.2h.9v-4.3l.1-.1c.2-.2.4-.4.6-.5.3-.2.6-.3.9-.3.5 0 .8.3.8.9V31h.9v-4.5c0-.9-.6-1.6-1.5-1.6-.6 0-1.3.4-1.9 1-.1-.2-.1-.3-.2-.4-.3-.4-.7-.6-1.2-.6-.3 0-.6.1-1 .3-.3.2-.5.3-.7.6 0-.2-.1-.6-.2-.8l-.9.2c.2.3.2.5.2 1.3zm-3.8-.1v4.5h.9v-3.7c0-.5.1-.7.3-.9.2-.2.6-.4 1-.4h.3l.4-1s-.2-.1-.3-.1c-.6 0-1.2.4-1.7 1v-.1c0-.4-.1-.6-.2-.9l-.9.2c.2.4.2.7.2 1.4zm-3.4-2.9c0 .3.3.6.6.6s.6-.3.6-.6-.3-.6-.6-.6c-.4 0-.6.3-.6.6zm-2.5 0c0 .3.3.6.6.6s.6-.3.6-.6-.3-.6-.6-.6-.6.3-.6.6zm2.9 5.9c-.3.6-.8.9-1.4.9-.7 0-1-.4-1-1.1 0-.4.1-.7.3-.9.3-.3.8-.5 1.7-.5h.5l-.1 1.6zm-2.8-3.1c.3-.2.4-.3.7-.4.4-.2.8-.3 1.1-.3.4 0 .6.1.8.3.2.2.2.4.2.9v.4h-.4c-2 0-3.1.8-3.1 2.1 0 .4.1.9.5 1.2.3.3.7.5 1.4.5s1.1-.2 1.7-.8c.1.4.4.7.8.9l.5-.7c-.4-.2-.5-.5-.5-1.2V26.7c0-.5 0-.7-.1-1-.2-.6-.8-.9-1.6-.9-.9 0-1.7.3-2.5.8l.5.7zm-8.7 4.6h1.3l1-4.6c.1-.6.3-1.6.4-2.2.1.7.2 1.5.4 2.3l1 4.5h1.3l1.9-8.1h-1l-1 4.7c-.2.9-.4 2-.5 2.5l-.5-2.5-1.1-4.7h-1.1l-1.1 4.9c-.2.8-.3 1.6-.5 2.4-.1-.8-.2-1.5-.4-2.5l-1-4.8h-1l1.9 8.1zM190.7 15.1c0 .1-.1.3-.4.4-.4.3-.7.4-1.1.4-.4 0-.7-.1-1-.4-.4-.4-.5-.8-.5-1.9 0-.8.1-1.3.4-1.7.2-.4.6-.6 1.1-.6.7 0 1.1.2 1.4.6v3.2h.1zm0-7.1v3.4c-.4-.5-.9-.8-1.6-.8-.4 0-.8.1-1.1.4-.8.6-1.2 1.5-1.2 2.7 0 1.9.9 3 2.4 3 .5 0 .9-.1 1.2-.3.2-.1.2-.2.4-.4 0 .3 0 .4.1.6h.9c-.1-.2-.1-.3-.1-.5 0-.3-.1-.8-.1-1.4V8.1l-.9-.1zm-10 4.2v4.4h.9v-4.4c.4-.5 1.2-.8 1.6-.8.3 0 .5.1.7.2.2.2.2.4.2 1v4h.9v-4.5c0-.2 0-.5-.1-.7-.2-.5-.8-.9-1.4-.9-.6 0-1.2.3-1.9.9 0-.3-.1-.6-.2-.9l-.9.2c.2.6.2.7.2 1.5zm-2.9 3c-.3.6-.8.9-1.4.9-.7 0-1-.4-1-1.1 0-.4.1-.7.3-.9.3-.3.8-.5 1.7-.5h.5l-.1 1.6zm-2.9-3.2c.3-.2.4-.3.7-.4.4-.2.8-.3 1.1-.3.4 0 .6.1.8.3.2.2.2.4.2.9v.5h-.4c-2 0-3.1.8-3.1 2.1 0 .4.1.9.5 1.2.3.3.7.5 1.4.5s1.1-.2 1.7-.8c.1.4.4.7.8.9l.5-.7c-.4-.2-.5-.4-.5-1.2V12.5c0-.5 0-.7-.1-1-.2-.6-.8-.9-1.6-.9-.9 0-1.7.3-2.5.8l.5.6zm-5.4-.2c.4-.3.7-.4 1.1-.4.5 0 .9.2 1.1.5.2.3.3.8.3 1.6 0 1-.2 1.6-.4 1.9-.2.3-.7.5-1.1.5-.6 0-1.2-.3-1.5-.7v-3c.2-.2.2-.2.5-.4zm-1.6-3.6c.2.3.2.8.2 1.4v5.6c0 .8 0 1.2-.2 1.5h.9c.1-.2.1-.3.2-.6.3.4 1 .8 1.6.8 1.4 0 2.3-1.3 2.3-3.2 0-1.9-.9-3-2.3-3-.6 0-1.1.2-1.7.8V9.4c0-.6 0-1-.2-1.5l-.8.3zm-3.5 3.9v4.5h.9v-3.7c0-.5.1-.7.3-.9.3-.3.6-.4 1-.4h.3l.4-1s-.2-.1-.3-.1c-.6 0-1.2.4-1.7 1v-.1c0-.4-.1-.6-.2-.9l-.9.2c.2.5.2.8.2 1.4zm-3.9-.8c.5 0 .9.2 1.1.5.2.3.3.7.3 1.3h-2.7c-.1-1.2.4-1.8 1.3-1.8zm.3 4.7c-.6 0-1.1-.2-1.5-.7-.2-.3-.3-.7-.3-1.3v-.1h3.7v-.1c0-1.4-.2-2-.7-2.5-.4-.4-1-.7-1.6-.7-.7 0-1.3.3-1.8.8-.5.6-.7 1.2-.7 2.2 0 2 1 3.1 2.6 3.1.8 0 1.5-.3 2-.7l-.4-.6c-.2.4-.7.6-1.3.6zm-6.6.7h.9l2.2-6h-1l-1.3 3.9c-.1.4-.2.7-.3 1-.1-.3-.2-.6-.3-1l-1.4-4.1-.9.2 2.1 6zm-5-6.2c-1.2 0-2.1.7-2.1 1.8 0 .4.1.7.4 1 .3.3.6.5 1.1.6l.7.2c.7.1 1 .4 1 1s-.5 1-1.2 1-1.3-.2-1.9-.6l-.4.7c.6.4 1.4.6 2.2.6 1.3 0 2.2-.8 2.2-1.9 0-.9-.5-1.4-1.6-1.6l-.8-.2c-.4-.1-.6-.2-.7-.3-.1-.1-.2-.3-.2-.5 0-.6.4-1 1.1-1 .5 0 1 .2 1.5.4l.5-.7c-.5-.3-1.2-.5-1.8-.5zm-5.6.8c.5 0 .9.2 1.1.5.2.3.3.7.3 1.3h-2.7c0-1.2.5-1.8 1.3-1.8zm.4 4.7c-.6 0-1.1-.2-1.5-.7-.2-.3-.3-.7-.3-1.3v-.1h3.7v-.1c0-1.4-.2-2-.7-2.5-.4-.4-1-.7-1.6-.7-.7 0-1.3.3-1.8.8-.5.6-.7 1.2-.7 2.2 0 2 1 3.1 2.6 3.1.8 0 1.5-.3 2-.7l-.4-.6c-.3.4-.8.6-1.3.6zm-5.3-.9c0 .1-.1.3-.4.4-.4.3-.7.4-1.1.4-.4 0-.7-.1-1-.4-.4-.4-.5-.8-.5-1.9 0-.8.1-1.3.4-1.7.2-.4.6-.6 1.1-.6.7 0 1.1.2 1.4.6v3.2h.1zm0-7.1v3.4c-.4-.5-.9-.8-1.6-.8-.4 0-.8.1-1.1.4-.8.6-1.2 1.5-1.2 2.7 0 1.9.9 3 2.4 3 .5 0 .9-.1 1.2-.3.2-.1.2-.2.4-.4 0 .3 0 .4.1.6h.9c-.1-.2-.1-.3-.1-.5 0-.3-.1-.8-.1-1.4V8.1l-.9-.1zm-10 4.2v4.4h.9v-4.4c.4-.5 1.2-.8 1.6-.8.3 0 .5.1.7.2.2.2.2.4.2 1v4h.9v-4.5c0-.2 0-.5-.1-.7-.2-.5-.8-.9-1.4-.9-.6 0-1.2.3-1.9.9 0-.3-.1-.6-.2-.9l-.9.2c.2.6.2.7.2 1.5zm-6.4 2.9c0 .3 0 .7.2.9.2.5.8.8 1.6.8s1.4-.3 1.9-.9c.1.4.2.6.6.9l.6-.6c-.2-.1-.2-.2-.3-.3-.1-.2-.1-.4-.1-1.1v-4.2l-.9.2V15c-.3.6-.9 1.1-1.5 1.1-.3 0-.5-.1-.7-.2-.3-.2-.3-.4-.3-1v-4.2l-.9.2v4.2h-.2zm-4.4-2.3c.4 0 .7 0 1 .1.6.1 1 .7 1 1.4 0 .2 0 .5-.1.7-.3.7-.6.8-1.6.8h-1.6v-3h1.3zm-.3-3.5c.4 0 .7 0 .9.1.6.1.9.6.9 1.3 0 .2 0 .4-.1.6-.2.5-.5.7-1.4.7h-1.4V9.3h1.1zm-2.1 7.3h2.1c1.2 0 1.4 0 1.9-.2.8-.3 1.4-1.1 1.4-2 0-.6-.3-1.3-.7-1.6-.3-.2-.5-.3-1.1-.5.9-.3 1.5-.9 1.5-1.8 0-.8-.6-1.6-1.4-1.9-.4-.1-.8-.2-2.4-.2h-1.2v8.2h-.1z"/>
			<path d="M.2.2h204.5v40.6H.2z"/>
		</g>
	</symbol>
	<symbol id="ubisoft" viewBox="0 0 1006 920">
		<g fill="#fff" fill-rule="evenodd">
			<path d="M6 732.61v111.62c0 45.322 30.895 74.21 75.891 74.21 47.33 0 76.3-30.464 76.3-77.267V732.61h-40.06v106.524c0 25.52-12.852 41.346-35.813 41.346-25.164 0-36.257-18.2-36.257-39.307V732.61H6z"/>
			<path fill-rule="nonzero" d="M177.668 734.152v182.467h63.806c35.339 0 65.367-18.024 65.367-53.772 0-37.314-32.652-45.585-32.652-45.585s24.178-6.716 24.178-38.64c0-31.903-30.56-44.47-56.893-44.47h-63.806zm40.36 34.658h19.369c13.442 0 22.043 7.08 22.043 19.4 0 11.02-7.297 19.336-21.024 19.336h-20.387V768.81zm0 67.279h21.407c20.13 0 27.11 10.34 27.11 22.68 0 14.359-9.029 22.777-25.071 22.777h-23.445V836.09z"/>
			<path d="M322.004 734.14h40.265v182.466h-40.265zM761.352 916.606h-40.265V734.14h126.401v37.716h-86.136v41.794h78.491v30.581h-78.491zM862.269 734.14v37.715h51.988v144.751h40.775v-144.75H1006v-37.717zM408.236 855.934l-31.987 23.387s11.053 40.425 66.465 40.425c36.9 0 64.053-21.534 64.053-59.392 0-61.011-85.31-48.068-85.31-79.444 0-8.257 7.343-15.551 20.895-15.551 21.744 0 30.008 21.33 30.008 21.33l31.996-22.455s-12.497-33.313-60.397-33.313c-39.365 0-60.276 25.255-60.276 51.315 0 62.175 82.826 48.68 82.826 81.31 0 11.011-8.677 19.102-22.191 19.009-26.775 0-36.082-26.621-36.082-26.621z"/>
			<path fill-rule="nonzero" d="M610.74 730.837c-47.417 0-68.552 25.739-68.552 25.739l6.116 6.116s-30.677 21.79-30.677 68.584c0 53.845 41.527 88.43 93.336 88.43 60.198 0 94.355-44.418 94.355-94.355 0-53.25-38.996-94.514-94.578-94.514zm.86 37.876c32.15 0 53.007 24.573 53.007 56.479 0 31.575-20.608 56.83-53.007 56.83-32.009 0-53.039-22.352-53.039-52.02 0-27.001 18.285-38.768 18.285-38.768l-6.626-6.626s14.099-15.895 41.38-15.895zM487.516 5c-206.798 0-296.06 184.072-296.06 184.072l26.275 18.81s-33.065 62.879-32.15 143.53c0 164.64 131.058 319.732 323.986 319.732 175.268 0 320.05-142.657 320.05-319.327C829.617 121.399 650.935 5 487.517 5zm1.794 56.168c161.571 0 286.946 130.2 286.946 281.563 0 160.455-120.68 272.042-261.307 272.042-103.498 0-196.863-78.816-196.863-186.879 0-62.415 33.174-105.928 70.348-129.119l5.44 5.903c-10.173 7.96-39.181 54.557-39.181 100.356 0 85.022 66.674 143.906 150.678 143.906 107.006 0 178.371-91.267 178.371-197.238 0-123.296-108.833-227.971-239.806-227.971-72.442 0-133.926 31.154-169.256 58.657l-5.498-4.977C315.403 106.144 395.446 61.168 489.31 61.168zm-48.21 117.95c83.58 0 165.18 55.293 185.548 133.778l-7.408 2.807c-36.571-48.294-96.496-88.317-167.26-88.317-130.212 0-198.596 118.323-188.557 217.147l-7.668 2.808s-14.382-31.734-14.382-69.364c0-108.97 89.488-198.86 199.727-198.86zm55.242 136.759c39.57 0 71.216 32.072 71.216 70.145 0 31.506-20.228 50.178-20.228 50.178l23.96 16.755s-23.759 37.3-72.257 37.3c-46.391 0-87.42-37.444-87.42-87.797 0-51.884 44.629-86.582 84.73-86.582z"/>
		</g>
	</symbol>
	<symbol id="dgk" viewBox="0 0 477 486">
		<g fill="none" fill-rule="evenodd">
			<path fill="#fff" d="M174.338 178.617V72.281h129.253v106.336h106.337v129.254H303.591v106.234H174.338V307.871H68.096V178.617h106.242M71.098 354.41l13.078 18.48-2.611 1.85-11.047-15.602-10.984 7.77 10.271 14.512-2.611 1.858-10.271-14.512L42.27 379.13l-2.031-2.885 30.859-21.835"/>
			<path fill="#fff" fill-rule="nonzero" d="M87.884 411.518c-5.896 5.504-13.65 7.99-20.682.447-7.033-7.534-4.007-15.1 1.89-20.596l17.067-15.924 2.407 2.58-16.41 15.304c-3.943 3.677-8.623 10.012-2.61 16.457 6.013 6.444 12.654 2.218 16.598-1.467l16.401-15.296 2.407 2.58-17.068 15.915zm11.243-36.26c.98 1.058.925 2.641-.125 3.621a2.529 2.529 0 0 1-3.623-.125c-.987-1.058-.933-2.642.126-3.622 1.05-.988 2.634-.925 3.622.125zm6.915 7.424c.988 1.05.933 2.634-.117 3.622a2.539 2.539 0 0 1-3.63-.133 2.526 2.526 0 0 1 .125-3.614c1.058-.988 2.642-.933 3.622.125zM109.703 399.71l7.786 6.171c2.344 1.858 10.545 8.358 4.375 16.143-4.477 5.653-10.02 3.779-13.61 1.615l-2.667 21.067-3.136-2.493 2.823-20.667-5.151-4.077-11.149 14.065-2.76-2.195 23.49-29.628zm-7.589 15.25l5.857 4.641c5.817 4.61 9.502 2.29 11.133.236 1.623-2.054 3.05-6.17-2.768-10.78l-5.864-4.642-8.358 10.545z"/>
			<path fill="#fff" d="M155.177 468.32c-5.026.44-9.77-.76-14.23-2.822-10.467-4.845-14.238-15.775-9.393-26.233 4.845-10.475 15.618-14.67 26.084-9.824 5.089 2.36 8.491 5.817 10.161 10.474l-3.45 1.349c-.917-3.489-4.32-7.182-8.051-8.914-8.97-4.148-17.594-.142-21.545 8.389-3.944 8.53-1.427 17.703 7.542 21.85 3.685 1.71 7.205 2.752 10.537 2.415l5.34-11.54-8.24-3.811 1.348-2.909 11.439 5.292-7.542 16.284M176.408 438.049l22.368 5.873-.815 3.097-18.958-4.979-3.418 13.023 17.773 4.657-.815 3.104-17.766-4.657-3.74 14.254 19.781 5.19-.815 3.097-23.192-6.084 9.597-36.575"/>
			<g transform="matrix(0 1 1 0 -2.004 -.092)">
				<g fill="#fff" mask="url(#dgk-b)">
					<path d="M475.515 203.5c3.34 1.49 5.285 4.32 5.732 8.036.548 4.72-1.882 8.766-6.39 9.299-10.498 1.238-6.625-18.848-20.886-17.17-6.688.784-9.62 6.938-8.883 13.25.486 4.076 2.281 7.526 5.927 9.682l1.819-3.277c-2.642-1.466-4.195-3.654-4.571-6.892-.533-4.508 1.34-8.702 6.115-9.267 11.298-1.325 6.782 18.832 20.894 17.178 6.79-.8 9.903-6.813 9.181-12.913-.58-4.931-2.681-9.094-7.11-11.532l-1.828 3.606M470.38 259.542c8.068.164 15.5-3.16 15.712-13.462.212-10.302-7.088-13.924-15.147-14.089l-23.333-.478-.07 3.52 22.423.463c5.394.11 13.1 1.709 12.928 10.521-.18 8.805-7.958 10.09-13.352 9.98l-22.423-.462-.07 3.528 23.332.479"/>
				</g>
			</g>
			<path fill="#fff" d="M262.948 446.501l4.461-.87 28.922 28.107.102-.024-6.327-32.497 3.458-.674 7.228 37.115-4.461.87-28.922-28.115-.102.024 6.327 32.505-3.465.675-7.221-37.116"/>
			<path fill="#fff" fill-rule="nonzero" d="M299.31 438.833l10.883-4.265c18.299-7.166 24.924 7.558 25.943 10.153 1.011 2.58 6.139 17.892-12.16 25.058l-10.89 4.265-13.775-35.21zm15.885 30.938l6.774-2.65c9.345-3.654 14.833-11.023 10.882-21.122-3.951-10.09-12.983-11.776-22.329-8.114l-6.774 2.642 11.447 29.244z"/>
			<path fill="#fff" d="M332.851 425.043l3.003-1.843 8.655 14.238 18.08-10.984-8.664-14.238 3.011-1.827 19.648 32.302-3.011 1.834-9.322-15.335-18.072 10.992 9.322 15.328-3.01 1.834-19.64-32.301M362.361 406.163l17.672-14.912 2.07 2.446-14.983 12.639 8.68 10.286 14.041-11.846 2.07 2.454-14.049 11.838 9.502 11.267 15.633-13.18 2.07 2.446-18.33 15.461-24.376-28.899M383.961 386.884l2.454-2.524 27.08 26.39-2.462 2.524-27.072-26.39M399.587 374.324l-8.099 10.075-2.501-2.015 18.401-22.885 2.501 1.999-8.091 10.074 26.97 21.686-2.211 2.744-26.97-21.678M39.299 343.693a4.195 4.195 0 0 1 1.858-5.645 4.206 4.206 0 0 1 5.645 1.858 4.198 4.198 0 0 1-1.866 5.645 4.184 4.184 0 0 1-5.637-1.858"/>
			<path fill="#fff" fill-rule="nonzero" d="M13.27 316.699l-2.902-11.33c-4.876-19.035 10.545-23.818 13.235-24.5 2.697-.69 18.518-3.92 23.395 15.124l2.893 11.33-36.622 9.376zm32.646-11.996l-1.796-7.04c-2.493-9.73-9.134-16.072-19.64-13.383-10.505 2.689-13.273 11.446-10.787 21.176l1.803 7.033 30.42-7.786z"/>
			<path fill="#fff" d="M3.202 268.129l-1.38-23.082 3.199-.196 1.168 19.57 13.431-.8-1.09-18.338 3.199-.196 1.089 18.346 14.717-.886-1.216-20.416 3.199-.188 1.427 23.936-37.743 2.25M28.77 203.173c8.004.988 14.896 5.331 13.633 15.563-1.254 10.223-8.992 12.771-16.997 11.784l-23.168-2.846.431-3.497 22.266 2.736c5.355.659 13.211.173 14.293-8.57 1.074-8.749-6.437-11.124-11.792-11.783l-22.258-2.744.431-3.497 23.16 2.854M15.558 174.658l-3.88 12.325-3.058-.957 8.82-28.02 3.058.964-3.881 12.325 33.007 10.388-1.058 3.363-33.008-10.388M51.372 157.48c3.654-.227 6.469-2.218 8.162-5.543 2.156-4.241 1.286-8.883-2.76-10.937-9.424-4.806-12.748 15.383-25.55 8.86-5.999-3.058-6.61-9.848-3.733-15.508 1.866-3.662 4.751-6.265 8.922-7.025l.565 3.708c-2.987.455-5.198 1.968-6.68 4.87-2.054 4.045-1.756 8.631 2.525 10.81 10.137 5.167 12.897-15.303 25.55-8.859 6.093 3.105 6.924 9.824 4.14 15.297-2.258 4.421-5.676 7.597-10.67 8.35l-.47-4.023M86.755 104.833c1.725 5.826.306 10.93-3.065 15.344-7.01 9.157-18.495 10.459-27.653 3.45-9.165-7.01-10.913-18.433-3.904-27.598 3.113-4.07 7.268-6.68 12.63-6.743l.157 3.748c-4.233-.274-7.934 1.936-10.239 4.947-6.006 7.84-3.967 17.13 3.497 22.846 7.464 5.716 16.966 5.246 22.964-2.603 2.305-3.01 3.724-7.84 2.124-12.434l3.49-.957M72.957 73.692l2.665-2.32 10.937 12.575 15.955-13.885-10.937-12.568 2.658-2.312 24.814 28.522-2.658 2.313-11.776-13.54L88.66 86.362l11.776 13.54-2.657 2.313-24.822-28.523M110.621 43.829l19.969-11.651 1.615 2.76-16.927 9.879 6.782 11.627 15.868-9.259 1.607 2.767-15.868 9.259 7.432 12.733 17.664-10.302 1.615 2.76-20.713 12.089-19.044-32.662"/>
			<g transform="matrix(0 1 1 0 -2.004 -.092)">
				<g fill="#fff" mask="url(#dgk-d)">
					<path d="M53.4 160.395c2.289 2.861 2.72 6.272 1.403 9.776-1.67 4.446-5.692 6.931-9.934 5.332-9.902-3.724 2.76-19.789-10.686-24.846-6.303-2.368-11.729 1.756-13.963 7.7-1.45 3.849-1.427 7.737.823 11.32l3.12-2.077c-1.685-2.51-2.054-5.167-.909-8.209 1.6-4.257 5.19-7.127 9.69-5.433 10.647 4.006-2.618 19.843 10.679 24.845 6.405 2.407 11.925-1.513 14.089-7.26 1.74-4.649 1.787-9.306-1.027-13.508l-3.285 2.36M41.169 240.333c2.854-4.17 4.14-8.89 4.531-13.783.918-11.501-6.758-20.15-18.251-21.066-11.502-.918-20.44 6.413-21.357 17.907-.447 5.59.894 10.255 4.132 13.994l2.87-2.344c-2.588-2.509-4.14-7.3-3.811-11.392.784-9.847 8.514-15.398 17.883-14.645 9.37.745 16.12 7.44 15.336 17.287-.322 4.046-1.137 7.629-3.074 10.365l-12.67-1.011.722-9.048-3.199-.25-.996 12.56 17.884 1.426"/>
					<path fill-rule="nonzero" d="M6.75 257.637l1.13 9.87c.344 2.972 1.528 13.368 11.399 12.239 7.166-.823 8.499-6.508 8.554-10.71l19.294 8.867-.454-3.982-19.036-8.523-.745-6.523 17.828-2.038-.4-3.505-37.57 4.305zm16.95 1.607l.855 7.424c.847 7.378-3.073 9.275-5.676 9.573-2.603.298-6.844-.666-7.691-8.044l-.855-7.424 13.368-1.53zM43.254 317.167c7.707-2.376 13.729-7.864 10.694-17.719-3.042-9.847-11.11-10.992-18.808-8.616l-22.306 6.876 1.043 3.363 21.435-6.601c5.151-1.592 12.976-2.493 15.57 5.927 2.596 8.42-4.374 12.082-9.533 13.665l-21.435 6.61 1.035 3.363 22.305-6.868zm-37.045-8.31c.424 1.38 1.827 2.116 3.207 1.693a2.525 2.525 0 0 0 1.694-3.199c-.424-1.38-1.827-2.125-3.2-1.701a2.535 2.535 0 0 0-1.7 3.206zm2.988 9.698a2.548 2.548 0 0 0 3.214 1.693 2.526 2.526 0 0 0 1.686-3.206c-.424-1.38-1.82-2.117-3.2-1.694-1.379.424-2.116 1.827-1.7 3.207z"/>
				</g>
			</g>
			<path fill="#fff" d="M340.401 28.501l3.967 2.203 4.014 40.127.094.054 16.096-28.938 3.082 1.717-18.378 33.039-3.967-2.203-4.022-40.126-.086-.055-16.104 28.938-3.081-1.717 18.385-33.039M383.93 55.511l17.64 14.943-2.07 2.446-14.951-12.669-8.702 10.27 14.018 11.87-2.07 2.446-14.018-11.87-9.526 11.243 15.602 13.219-2.07 2.446-18.299-15.5 24.446-28.844M390.931 103.72c-1.2 3.458-.455 6.821 1.952 9.675 3.066 3.63 7.684 4.626 11.157 1.701 8.075-6.829-9.236-17.726 1.74-26.994 5.144-4.343 11.643-2.273 15.736 2.58 2.658 3.144 3.935 6.813 3.026 10.945l-3.646-.917c.745-2.933.204-5.551-1.89-8.037-2.931-3.473-7.283-4.978-10.952-1.873-8.687 7.338 9.11 17.82-1.748 26.985-5.222 4.407-11.73 2.572-15.696-2.124-3.207-3.787-4.806-8.17-3.56-13.07l3.881 1.13M448.259 131.537l1.513 3.183-15.046 7.151.142.29 22.909 9.392 2.085 4.391-23.834-9.84-9.855 27.033-2.18-4.578 9.424-25.708-.133-.291-17.656 8.389-1.513-3.183 34.144-16.229"/>
			<path fill="#fff" fill-rule="nonzero" d="M464.621 170.048l2.627 9.58c.8 2.886 3.567 12.976-6.014 15.61-6.946 1.906-10.31-2.869-11.933-6.75l-14.59 15.422-1.067-3.865 14.49-14.999-1.741-6.334-17.304 4.75-.933-3.394 36.465-10.02zm-15.14 7.817l1.984 7.205c1.968 7.166 6.32 7.464 8.836 6.766 2.533-.69 6.108-3.167 4.148-10.333l-1.984-7.205-12.983 3.567z"/>
			<path fill="#fff" d="M473.786 209.814l2.203 23.018-3.183.306-1.866-19.506-13.399 1.278 1.749 18.291-3.191.298-1.749-18.284-14.676 1.404 1.944 20.361-3.183.306-2.282-23.874 37.633-3.598M450.548 275.648c-8.036-.69-15.077-4.79-14.183-15.061.894-10.271 8.538-13.086 16.566-12.388l23.247 2.023-.298 3.512-22.345-1.944c-5.378-.47-13.219.298-13.979 9.079-.76 8.78 6.829 10.882 12.2 11.353l22.344 1.936-.306 3.512-23.246-2.022M437.329 283.323l24.893 29.707 5.731-21.02 3.097.847-6.931 25.394-2.783-.752-24.744-29.84-6.013 22.054-3.097-.846 7.174-26.273 2.673.729M438.78 343.599a4.196 4.196 0 0 1-5.645 1.866 4.2 4.2 0 1 1 3.779-7.503 4.194 4.194 0 0 1 1.866 5.637"/>
		</g>
	</symbol>
</svg>
