<?xml version="1.0" standalone="no"?>
<!DOCTYPE svg PUBLIC "-//W3C//DTD SVG 20010904//EN"
 "http://www.w3.org/TR/2001/REC-SVG-20010904/DTD/svg10.dtd">
<svg version="1.0" xmlns="http://www.w3.org/2000/svg"
 width="700.000000pt" height="700.000000pt" viewBox="0 0 700.000000 700.000000"
 preserveAspectRatio="xMidYMid meet">
<metadata>
Created by potrace 1.11, written by Peter Selinger 2001-2013
</metadata>
<g transform="translate(0.000000,700.000000) scale(0.100000,-0.100000)"
fill="#000000" stroke="none">
<path d="M2400 5800 l0 -350 525 0 525 0 0 350 0 350 -525 0 -525 0 0 -350z"/>
<path d="M2400 4900 l0 -350 525 0 525 0 0 350 0 350 -525 0 -525 0 0 -350z"/>
<path d="M4750 4900 l0 -350 525 0 525 0 0 350 0 350 -525 0 -525 0 0 -350z"/>
<path d="M2400 4050 l0 -350 525 0 525 0 0 350 0 350 -525 0 -525 0 0 -350z"/>
<path d="M3550 4050 l0 -350 525 0 525 0 0 350 0 350 -525 0 -525 0 0 -350z"/>
<path d="M4750 4050 l0 -350 525 0 525 0 0 350 0 350 -525 0 -525 0 0 -350z"/>
<path d="M2400 3200 l0 -350 525 0 525 0 0 350 0 350 -525 0 -525 0 0 -350z"/>
<path d="M3550 3200 l0 -350 525 0 525 0 0 350 0 350 -525 0 -525 0 0 -350z"/>
<path d="M4750 3200 l0 -350 525 0 525 0 0 350 0 350 -525 0 -525 0 0 -350z"/>
<path d="M5900 3200 l0 -350 525 0 525 0 0 350 0 350 -525 0 -525 0 0 -350z"/>
<path d="M53 3186 c0 -315 2 -355 16 -358 31 -7 1001 -1 1008 5 3 4 7 165 7
357 l1 350 -516 0 -516 0 0 -354z"/>
<path d="M58 2676 c0 -1 -2 -161 -3 -356 l-2 -356 513 0 c283 0 514 3 515 6 0
3 2 163 2 356 l2 350 -512 0 c-282 0 -514 0 -515 0z"/>
<path d="M4749 2671 c-3 -18 -4 -679 -1 -691 3 -14 63 -16 518 -16 l514 1 0
355 0 356 -515 0 c-283 1 -515 -2 -516 -5z"/>
<path d="M1200 2300 l0 -350 525 0 525 0 0 350 0 350 -525 0 -525 0 0 -350z"/>
<path d="M2400 2300 l0 -350 525 0 525 0 0 350 0 350 -525 0 -525 0 0 -350z"/>
<path d="M3550 2300 l0 -350 525 0 525 0 0 350 0 350 -525 0 -525 0 0 -350z"/>
<path d="M5900 2300 l0 -350 525 0 525 0 0 350 0 350 -525 0 -525 0 0 -350z"/>
<path d="M53 1455 l0 -355 26 -1 c33 -1 982 -1 996 0 6 1 10 127 10 356 l0
355 -516 0 -516 0 0 -355z"/>
<path d="M4750 1455 c0 -277 3 -355 13 -356 72 -4 1009 0 1014 5 3 3 6 22 6
41 -1 19 -2 177 -2 350 l-1 315 -515 0 -515 0 0 -355z"/>
<path d="M1200 1450 l0 -350 525 0 525 0 0 350 0 350 -525 0 -525 0 0 -350z"/>
<path d="M2400 1450 l0 -350 525 0 525 0 0 350 0 350 -525 0 -525 0 0 -350z"/>
<path d="M3550 1450 l0 -350 525 0 525 0 0 350 0 350 -525 0 -525 0 0 -350z"/>
<path d="M5900 1450 l0 -350 525 0 525 0 0 350 0 350 -525 0 -525 0 0 -350z"/>
</g>
</svg>
