<svg xmlns="http://www.w3.org/2000/svg" xmlns:xlink="http://www.w3.org/1999/xlink">
	<defs>
		<path id="viacom-a" d="M0 157.2V1h1001.7v156.2"/>
		<path id="dgk-a" d="M6.092 3.826h480v474.355h-480"/>
		<path id="dgk-c" d="M6.092 3.826h480v474.355h-480"/>
	</defs>
	<mask id="viacom-b" fill="#fff">
		<use xlink:href="#viacom-a"/>
	</mask>
	<mask id="dgk-b" fill="#fff">
		<use xlink:href="#dgk-a"/>
	</mask>
	<mask id="dgk-d" fill="#fff">
		<use xlink:href="#dgk-c"/>
	</mask>

	<symbol id="logo" viewBox="0 0 375 237">
		<g fill="none" fill-rule="evenodd">
			<path fill="#5B2313" d="M155.8 237.4h219.4V-.7H155.8z"/>
			<path fill="#AA4223" d="M31 60.3c11.3-.2 20.5-9 20.5-19.6a20 20 0 0 0-20.4-19.4H7.6v39h23.5zM1 18C1 16.4 2.5 15 4.2 15h26.9C45.9 15 58 26.6 58 40.7 58 55 46 66.3 31 66.3l-23.4.3v35.3c0 1.7-1.5 3.1-3.4 3.1-1.7 0-3.2-1.4-3.2-3V18zM108.8 21.2H85.3v39h24a20 20 0 0 0 20-19.5 20 20 0 0 0-20.5-19.5zm19 63.6c0-6.6-3.5-10.7-7.7-13.7a31.3 31.3 0 0 0-11-4.5l-.7-.3h-23v35.8c0 1.7-1.6 3-3.5 3-1.7 0-3.2-1.3-3.2-3V18c0-1.6 1.3-3 3-3.1h27.1c15 0 27 11.5 27 25.8 0 10.3-6.3 19.2-15.5 23.3l1.3.7c6.3 3.3 12.8 9.9 12.8 20 0 5.4.5 8.6 1.2 10.5.6 1.6 1.2 2.1 1.4 2.2 1.5 0 3 .7 3.6 2.1.4 1.7-.4 3.5-2.1 4.1l-1.7.2h-.2a7.6 7.6 0 0 1-6.2-4.2c-1.6-3-2.5-7.2-2.5-14.8z"/>
			<path fill="#DF542A" d="M214.7 98.7A39.3 39.3 0 0 0 253.2 59a39 39 0 0 0-38.5-39.5 39 39 0 0 0-39 39.5 39.3 39.3 0 0 0 39 39.7zm0-85.7A45.6 45.6 0 0 1 260 59c-.1 25.4-20 46-45.3 46A45.7 45.7 0 0 1 169 59c.1-25.4 20.1-46 45.7-46zM292.6 28v73.9c0 1.7-1.4 3.1-3.2 3.1a3.2 3.2 0 0 1-3.2-3.1V19c-.5-1.3 0-2.6 1.2-3.5 1.5-.9 3.6-.6 4.6.8l57.4 76V18.5c0-1.7 1.5-3 3.2-3 2 0 3.4 1.3 3.4 3V102c0 1.7-1.5 3.1-3.4 3.1-1 0-1.9-.4-2.6-1.2 0 0-.4-.2-.5-.5L292.6 28M184.3 194.3h38.5l-19.2-48.5-19.3 48.5zm41 6.3h-43.4l-8.4 21.3c-.6 1.3-1.8 2.1-3.2 2.1l-1.2-.1c-1.6-.7-2.6-2.6-1.9-4.2l33-83.8c.6-1.1 2-1.9 3.3-1.9 1.5 0 2.8.8 3.3 2l33 83.7c.6 1.6-.2 3.5-1.8 4.2l-1.2.1c-1.3 0-2.6-.8-3.2-2l-8.4-21.4zM262 137c0-1.6 1.6-3 3.4-3 2 0 3.6 1.4 3.6 3v84c0 1.6-1.6 3-3.6 3-1.8 0-3.4-1.4-3.4-3v-84M330.6 139.8h-23.5v39h24a20 20 0 0 0 20-19.5 20 20 0 0 0-20.5-19.5zm19 63.6c0-6.6-3.5-10.7-7.7-13.7a31.3 31.3 0 0 0-11-4.5l-.7-.2h-23.1v35.7c0 1.7-1.5 3-3.4 3-1.8 0-3.3-1.3-3.3-3v-84.1c0-1.6 1.4-3 3-3.1h27.2c15 0 27 11.5 27 25.8 0 10.3-6.3 19.2-15.6 23.3l1.4.7c6.2 3.3 12.8 10 12.8 20.1 0 5.3.5 8.5 1.2 10.4.5 1.6 1.2 2.1 1.3 2.2 1.5 0 3.2.7 3.7 2.1.4 1.7-.4 3.5-2.2 4.1l-1.6.2h-.3a7.6 7.6 0 0 1-6-4.2c-1.7-3-2.7-7.2-2.7-14.8zM.1 237h20.6v-14.2H.1zM117 237h21v-14h-21zM23 237h21v-14H23zM47 237h21v-14H47zM70 237h21v-14H70zM94 237h20.6v-14.2H94zM.1 219.7h20.6v-14.2H.1zM117 220h21v-14h-21zM23 220h21v-14H23zM47 220h21v-14H47zM70 220h21v-14H70zM93.9 219.7h20.7v-14.2H93.9z"/>
			<path fill="#AA4223" d="M.1 202.5h20.6v-14.3H.1zM117 202h21v-14h-21zM47 202h21v-14H47zM70 202h21v-14H70zM94 202h21v-14H94zM47 185h21v-14H47zM70 185h21v-14H70zM94 185h21v-14H94z"/>
			<path fill="#5B2313" d="M47 168h21v-14H47zM94 168h21v-14H94zM47 150h21v-14H47z"/>
		</g>
	</symbol>
	<symbol id="microphone" viewBox="0 0 297 381" preserveAspectRatio="xMidYMin">
		<g fill="#0A0F2B" fill-rule="evenodd">
			<path d="M149.5 267c46.6 0 84.5-39.31 84.5-87.63V87.63C234 39.3 196.1 0 149.5 0S65 39.31 65 87.63v91.74c0 48.32 37.9 87.63 84.5 87.63zm0-24.65c-28.64 0-52.64-21.35-58.42-49.73h116.85c-5.8 28.38-29.79 49.73-58.43 49.73zm-59.77-62.98v-9.34h119.54v9.34l-.02.92H89.75l-.02-.92zm0-21.67h119.54v-12.32H89.73v12.32zm29.63-124.43V78.4a6.17 6.17 0 0 0 12.36 0V27.5a56.66 56.66 0 0 1 11.6-2.5V78.4a6.17 6.17 0 0 0 12.36 0V24.98c4 .44 7.88 1.28 11.6 2.5V78.4a6.17 6.17 0 0 0 12.36 0V33.27c17.7 10.95 29.63 31.2 29.63 54.36v45.43H89.73V87.63c0-23.15 11.92-43.4 29.63-54.36z"/>
			<path d="M284.6 129h-33.94v54.67c0 56.06-45.6 101.66-101.66 101.66-56.06 0-101.66-45.6-101.66-101.66V129H13.4a12.4 12.4 0 0 0 0 24.8h9.14v29.87c0 65.54 50.13 119.6 114.06 125.84v46.7h-15.8a12.4 12.4 0 1 0 0 24.79h56.4a12.4 12.4 0 0 0 0-24.8h-15.8v-46.69c63.93-6.25 114.05-60.3 114.05-125.84v-29.88h9.15a12.4 12.4 0 1 0 0-24.79"/>
		</g>
	</symbol>
	<symbol id="headset" viewBox="0 0 436 381" preserveAspectRatio="xMidYMin">
		<path fill="#0A0F2B" fill-rule="evenodd" d="M436 293.33a60.67 60.67 0 0 0-31.94-53.4c.8-1.7 1.28-3.59 1.28-5.6v-47.62C405.34 83.76 321.6 0 218.68 0S32.02 83.76 32.02 186.7v47.64c0 1.95.44 3.79 1.21 5.45A60.67 60.67 0 0 0 1 293.33a60.7 60.7 0 0 0 54.14 60.26A28.15 28.15 0 0 0 83.24 381a28.17 28.17 0 0 0 28.13-28.14V233.8a28.17 28.17 0 0 0-28.13-28.15l-.32.02v-15.21c0-74.88 60.9-135.8 135.76-135.8 74.86 0 135.76 60.92 135.76 135.8v15.23c-.23 0-.45-.04-.68-.04a28.17 28.17 0 0 0-28.13 28.15v119.06A28.17 28.17 0 0 0 353.76 381a28.15 28.15 0 0 0 28.1-27.4A60.69 60.69 0 0 0 436 293.32zm-422.01 0a47.68 47.68 0 0 1 41.11-47.17v94.34A47.68 47.68 0 0 1 14 293.33zm84.4-59.53v119.06c0 8.35-6.8 15.15-15.15 15.15-8.35 0-15.15-6.8-15.15-15.15V233.8c0-8.36 6.8-15.16 15.15-15.16 8.35 0 15.15 6.8 15.15 15.16zM368.9 352.86c0 8.35-6.8 15.15-15.15 15.15-8.35 0-15.15-6.8-15.15-15.15V233.8c0-8.36 6.8-15.16 15.15-15.16 8.35 0 15.15 6.8 15.15 15.16v119.06zm-1.49-143.65v-18.75c0-82.04-66.72-148.79-148.74-148.79-82.02 0-148.74 66.75-148.74 148.79V209a28.3 28.3 0 0 0-11.95 12.44v-34.74c0-88.63 72.09-160.73 160.69-160.73s160.69 72.1 160.69 160.73v35.49a28.3 28.3 0 0 0-11.95-12.99zM381.9 340.5v-94.34A47.68 47.68 0 0 1 423 293.33c0 24.06-17.92 43.99-41.11 47.17z"/>
	</symbol>
	<symbol id="radio" viewBox="0 0 408 381" preserveAspectRatio="xMidYMin">
		<g fill="#0A0F2B" fill-rule="evenodd">
			<path d="M351.01 118.23H330.2c-.37-.24-.77-.48-1.17-.69L106.15 1.47A12.91 12.91 0 1 0 94.2 24.39l180.2 93.84H55.99a56.06 56.06 0 0 0-55.99 56V325c0 30.88 25.12 56 55.99 56H351A56.06 56.06 0 0 0 407 325V174.23c0-30.88-25.12-56-55.99-56zM381.16 325A30.18 30.18 0 0 1 351 355.15H56A30.18 30.18 0 0 1 25.84 325V174.23A30.19 30.19 0 0 1 56 144.08H351a30.19 30.19 0 0 1 30.15 30.15V325z"/>
			<path d="M49 262h222v-60H49v60zm12.93-12.86h196.14v-34.28H61.93v34.28zM323 202c-16.54 0-30 13.46-30 30s13.46 30 30 30 30-13.46 30-30-13.46-30-30-30zm0 47.14c-9.45 0-17.14-7.69-17.14-17.14s7.69-17.14 17.14-17.14 17.14 7.69 17.14 17.14-7.69 17.14-17.14 17.14z"/>
		</g>
	</symbol>
	<symbol id="facebook" viewBox="0 0 266.9 266.9">
		<path fill="#3C5A99" d="M248 262.3c8 0 14.3-6.4 14.3-14.2V18.8c0-7.8-6.4-14.2-14.2-14.2H18.8C11 4.6 4.6 11 4.6 18.8v229.3c0 7.8 6.4 14.2 14.2 14.2h229.3z"/>
		<path fill="#FFF" d="M182.4 262.3v-99.8H216l5-38.9h-38.5V98.8c0-11.3 3.1-19 19.3-19h20.6V45c-3.6-.4-15.8-1.5-30-1.5-29.7 0-50 18.1-50 51.4v28.7h-33.6v38.9h33.5v99.8h40.2z"/>
	</symbol>
	<symbol id="viacom" viewBox="0 0 1021 162">
		<g fill="none" fill-rule="evenodd" transform="matrix(1 0 0 -1 12 161.2)">
			<g fill="#fff" fill-rule="nonzero" mask="url(#b)">
				<path d="M190.3 155.8V22.4c0-10.4 6-18 19.5-18H231v151.4h-40.7zM893.6 47.3l-30.5 87.4c-3 9.4-7.6 21-28.5 21h-47.8V4.6h16c12.4 0 20.2 5.5 20.2 18.3v105.6h.6l46.6-124h43.5l46.6 124h.7V22.6c0-10.6 5.7-18.1 20-18.1h20.2v151.3h-45c-15.8 0-25.6-4.5-30.4-18.6l-31.4-90h-.8zM87 45.8l-37 97.1c-2.7 7.1-6.3 12.9-19.8 12.9H0L62 4.5h45.2l64.4 151.3h-26.7c-11.4 0-15.9-5-18.7-12.3L87.5 45.8H87zM532.2 124h20.7c14.9 0 23.6 5.5 23.6 19v12.9h-59c-49.2 0-72.9-29.2-72.9-75.7 0-58 36-75.6 73-75.6h59v13c0 13.3-9.2 18.8-22.7 18.8h-21.7c-23.4 0-45.2 8.3-45.2 43.8 0 30.8 16.5 43.8 45.2 43.8zM374 61.1c0-15-6.9-26.9-27.2-26.9h-21.2c-14.9 0-23.6 4.1-23.6 16.1 0 11.7 8.1 16.3 23.6 16.3H374v-5.5zm-19.7 94.7h-83.2V144c0-10.2 5.2-20.2 19.7-20.2H344c22.4 0 30.1-7.3 30.1-25v-2.7H318c-42 0-57.2-19.4-57.2-45.7 0-32 21.4-46 57.2-46h37.4c49 0 59.6 24.6 59.6 57v37.6c0 35-13 56.7-60.6 56.7zM671.8 34.6c26.4 0 41.9 18.4 41.9 45.5 0 28.8-16.5 45.5-42 45.5-27 0-42.3-18.2-42.3-45.5 0-26.1 14.9-45.5 42.4-45.5zm0 122.8c49.4 0 84.6-27 84.6-77.3 0-48.1-32.5-77.5-84.6-77.5-51 0-84.9 28.2-84.9 77.5 0 48.7 33.6 77.3 84.9 77.3z"/>
			</g>
		</g>
	</symbol>
	<symbol id="mymuesli" viewBox="0 0 604 134">
		<g fill="none" fill-rule="evenodd">
			<path fill="#fff" fill-rule="nonzero" d="M455.2 59.5c0-17.1-13.4-28.6-30-28.6-19.5 0-35.5 10.9-35.5 35.3 0 25.1 14.7 37.2 35.9 37.2 14.7 0 29.6-8.9 29.6-22.7 0-3.7-2.4-6.2-5.6-6.2-2.4 0-4 1.2-5.4 2.5-2 1.7-7 5-13.3 5-8.2 0-12.5-3.7-14.6-9.3l32.4-5.2c4.4-.5 6.5-2.4 6.5-8zm-41-.1c-.1-5.8 1.5-13.8 7.8-13.8 5.7 0 7.2 6.1 7.2 11.3l-15 2.5zM275.4 31a47 47 0 0 0-27.5 6.6 37 37 0 0 0-23.5-6.6c-10 0-19.9 1.9-25.5 4.3-4.9 2-6 3.7-6 9V98c0 2.4 1.2 3.6 3.6 3.6h21.3c2.4 0 3.6-1.2 3.6-3.6V52.6c0-4 1.3-6.8 5.6-6.8s5.6 2.8 5.6 6.8V98c0 2.4 1.2 3.6 3.6 3.6h21.3c2.4 0 3.6-1.2 3.6-3.6V52.6c0-4 1.3-6.8 5.6-6.8s5.6 2.8 5.6 6.8V98c0 2.4 1.2 3.6 3.6 3.6h21.3c2.4 0 3.6-1.2 3.6-3.6V51.4c-.3-12.5-11.7-20.4-25.4-20.4zm100.9 1.8h-21.5c-2.4 0-3.6 1.2-3.6 3.6v45c0 3.3-2.1 5-5 5s-5-1.7-5-5v-45c0-2.4-1.2-3.6-3.6-3.6H316c-2.4 0-3.6 1.2-3.6 3.6v45.2c0 20.6 23 21.9 34.3 21.9 11.7 0 23.2-2.4 27.8-5 4.3-2.5 5.4-5.8 5.4-10.8V36.4c0-2.4-1.2-3.6-3.6-3.6zm112.9 15.6c0-2.5 1.6-4.5 4.6-4.5 3.1 0 4.9 1.6 6.6 5 2.1 4.3 6.5 6.9 11.6 6.9 6 0 10.4-3.5 10.4-9.3 0-8.5-10.2-15.5-28.6-15.5-17.8 0-30.7 7-30.7 21.3 0 23.2 34 19.3 34 31.6 0 2.7-2 4.3-4.5 4.3-3.6 0-5.6-2.1-7.6-5.8-2.1-4-6.6-6.8-12.2-6.8-6.9 0-11.2 3.9-11.2 10.1 0 8.8 10.2 17.9 31.6 17.9 19.8 0 31.1-9.7 31.1-22.6.1-25.3-35.1-20-35.1-32.6zM558.8 0h-21.5c-2.4 0-3.6 1.2-3.6 3.6V98c0 2.4 1.2 3.6 3.6 3.6h21.5c2.4 0 3.6-1.2 3.6-3.6V3.6c0-2.4-1.2-3.6-3.6-3.6zM600 32.8h-21.5c-2.4 0-3.6 1.2-3.6 3.6V98c0 2.4 1.2 3.6 3.6 3.6H600c2.4 0 3.6-1.2 3.6-3.6V36.4c0-2.4-1.2-3.6-3.6-3.6zm-10.7-5.2c9.2 0 14.6-4.8 14.6-10.6s-5.4-10.5-14.6-10.5-14.6 4.6-14.6 10.5c0 5.8 5.4 10.6 14.6 10.6z"/>
			<path fill="#fff" d="M186.4 36.4c0-2.4-1.2-3.6-3.6-3.6H165c-2.7 0-3.9.8-4.4 3.3l-5.7 26.3c-1.9 8.4-2.8 17.7-2.8 17.7h-.3s-.7-9.3-2.4-17.7l-5.6-26.3c-.5-2.5-1.7-3.3-4.4-3.3h-22.1c-2.4 0-3.6 1.2-3.6 3.6 0 .8.1 1.9.5 2.8l24 68.8-.5 1.9c-.5 1.7-2.1 3.7-4.5 3.7-3.5 0-4.8-2.9-10.6-2.9-5.4 0-10 3.7-10 10.2 0 7.7 6.2 13.3 19.1 13.3 17.1 0 26-9.6 30.8-24l23.1-70.9a7 7 0 0 0 .8-2.9M107.6 98V51.4c0-12.5-11.4-20.5-25.1-20.5A47 47 0 0 0 55 37.5C50.2 33.9 43 31 31.5 31c-10 0-19.9 1.9-25.5 4.3-4.9 2-6 3.7-6 9V98c0 2.4 1.2 3.6 3.6 3.6h21.3c2.4 0 3.6-1.2 3.6-3.6V52.6c0-4 1.3-6.8 5.6-6.8 4.2 0 5.6 2.8 5.6 6.8V98c0 2.4 1.2 3.6 3.6 3.6h21.3c2.4 0 3.6-1.2 3.6-3.6V52.6c0-4 1.3-6.8 5.6-6.8 4.2 0 5.6 2.8 5.6 6.8V98c0 2.4 1.2 3.6 3.6 3.6h21c2.4 0 3.6-1.2 3.6-3.6"/>
		</g>
	</symbol>
	<symbol id="oralb" viewBox="0 0 123 37">
		<path fill="#fff" fill-rule="evenodd" d="M103.68 36.32c9.908 0 17.942-8.033 17.942-17.943 0-9.911-8.034-17.945-17.942-17.945H18.833C8.925.432.888 8.466.888 18.377c0 9.91 8.037 17.942 17.945 17.942h84.847zM35.42 15.927c-.063 5.921-3.694 15.586-14.847 15.549-8.316 0-11.783-5.246-11.842-11.041-.051-8.427 5.561-15.654 14.851-15.634 8.13.019 11.904 5.081 11.839 11.126zm-18.582 4.929c.004 2.62 1.357 4.344 4.064 4.344 4.864 0 6.303-6.853 6.311-9.67.005-2.298-1.362-4.312-4.112-4.314-3.363-.001-6.266 3.436-6.263 9.64zm40.23-2.365h-9.919c-1.471 0-3.367.722-4.157 4.47l-1.71 7.971h-7.25l3.932-18.295h6.281v1.883c.91-.977 2.825-3.278 6.655-2.13l-.79 3.68c2.313-3.254 5.717-3.934 9.62-3.948 4.98-.01 9.918 1.96 8.924 6.59l-2.082 9.661c-.288 1.319-.017 1.869.286 2.55H59v-1.172c-4.563 3.28-11.715 1.775-11.705-3.854.014-4.661 4.628-5.681 5.702-5.874 4.998-.906 8.425-.816 8.75-2.213.402-1.725-4.333-1.893-4.68.68zm-2.525 6.797c0 2.215 4.777 2.324 5.97-2.746-2.866.87-5.971 1.041-5.97 2.746zM81.29 5.523L75.8 30.933h-7.414l5.486-25.41h7.42zm26.775 12.38c1.516 1.188 2.752 2.122 2.747 5.09-.004 2.208-1.747 7.94-10.072 7.94H86.09l2.3-10.695h-6.107l1.08-4.972h6.097l2.092-9.735h9.965c3.218 0 10.593-.548 10.63 5.872-.002 2.793-1.055 4.86-4.082 6.5zm-7.127 6.54c2.963 0 3.27-4.202.762-4.205h-5.549l-.908 4.206h5.695zm1.255-9.175c3.135 0 3.723-3.782.688-3.782h-4.845l-.815 3.782h4.972zm12.523 6.325a3.264 3.264 0 0 1-3.26-3.26 3.264 3.264 0 0 1 3.26-3.26 3.264 3.264 0 0 1 3.261 3.26 3.264 3.264 0 0 1-3.261 3.26zm0-5.994a2.736 2.736 0 0 0-2.733 2.734 2.736 2.736 0 0 0 2.733 2.734 2.738 2.738 0 0 0 2.736-2.734 2.738 2.738 0 0 0-2.736-2.734zm1.058 4.139h-.716l-.418-1.324h-.617l-.281 1.324h-.617l.667-3.135h1.423c.268 0 .617.007.82.146.245.183.318.481.227.801-.178.64-.568.838-.97.864l.482 1.324zm-.796-1.795c.35.007.612-.076.696-.471.088-.42-.36-.42-.665-.42h-.696l-.189.89h.854z"/>
	</symbol>
	<symbol id="take-two" viewBox="0 0 300 284">
		<g fill="none" fill-rule="evenodd">
			<path fill="#fff" d="M279.963-.08v1.197h3.991v9.578h1.197V1.117h3.592V-.08h-9.179M289.94 10.695h1.197v-8.78l3.193 8.78h1.197l3.192-9.179c.027.931.027 1.863 0 2.794v6.385h1.198V-.08h-1.996L295.128 9.1 291.935-.08h-1.995v10.775"/>
			<path fill="#fff" d="M202.146 254.523h-5.587v-14.765h-3.991v-4.39h13.569v4.39h-3.991v14.765M241.254 254.523h-5.587l-2.394-10.775-2.793 10.775h-5.188l-5.188-19.155h5.587l2.793 11.174 2.794-11.174h4.389l3.193 11.174 2.394-11.174h4.789l-5.188 19.155"/>
			<path fill="#fff" fill-rule="nonzero" d="M279.564 244.946c0 5.586-3.192 9.976-9.178 9.976-5.986 0-9.179-4.39-9.179-9.976 0-5.986 3.193-9.977 9.179-9.977 5.986 0 9.178 3.99 9.178 9.977m-11.972 0c0 1.995 0 5.586 2.794 5.586 2.793 0 2.793-3.99 2.793-5.586 0-1.996 0-5.587-2.793-5.587-2.394 0-2.794 3.99-2.794 5.587"/>
			<path fill="#fff" d="M45.713 265.297H51.3v17.56h-5.587zM72.051 282.856l-4.789-7.98-1.596-3.194.399 3.193v7.981h-3.99v-17.559h4.788l5.986 9.977-.399-5.188v-4.789h3.991v17.56H72.45M94.798 282.856H89.61v-13.169h-3.592v-3.99h12.371v3.99h-3.591v13.17M121.136 282.856h-13.169v-17.559h13.169v3.991h-7.981v2.793h6.385v3.991h-6.385v2.794h7.981v3.99"/>
			<path fill="#fff" fill-rule="nonzero" d="M140.69 282.857l-2.394-6.784H136.3v6.784h-5.187v-17.56h8.779c1.596 0 3.193 0 4.39 1.198 1.596.798 2.394 2.394 2.394 3.99 0 2.395-1.197 3.991-3.192 4.79l3.192 7.98h-5.986m-2.394-10.774c1.197 0 2.793 0 2.793-1.596l-.798-1.597h-3.99v3.193h1.995M165.033 279.664h-4.39l-1.197 3.193h-4.39l5.587-17.56h5.587l5.587 17.56h-5.587l-1.197-3.193m-.798-3.99l-1.197-5.188-1.597 5.187h2.794"/>
			<path fill="#fff" d="M194.165 276.87c-.4 3.991-3.592 6.386-7.583 6.386-5.187 0-7.98-3.991-7.98-8.78 0-5.188 2.394-9.178 7.98-9.178 4.39 0 7.184 2.394 7.583 6.784h-5.188c0-1.197-.4-3.193-2.395-3.193-2.394 0-2.394 3.991-2.394 5.587 0 1.597 0 4.789 2.394 4.789 1.597 0 2.395-1.596 2.395-3.192l5.188.399M211.724 282.856h-5.188v-13.169h-3.991v-3.99h12.77v3.99h-3.991v13.17M224.494 265.297h5.586v17.56h-5.586zM250.433 282.856h-5.188l-5.986-17.559h5.986l2.793 9.578v1.596l.798-1.596 2.794-9.578h4.39l-5.587 17.56M278.367 282.856h-13.169v-17.559h13.169v3.991h-7.981v2.793h6.385v3.991h-6.385v2.794h7.981v3.99"/>
			<path fill="#fff" fill-rule="nonzero" d="M84.821 250.931h-5.188l-1.197 3.991h-4.789l5.986-19.554h5.986l6.385 19.554H85.62l-.798-3.99m-1.197-3.991l-1.596-5.986-1.597 5.587h3.193"/>
			<path fill="#fff" d="M118.343 254.523l-3.193-7.183-1.995 2.793v4.39h-5.587v-19.155h5.587v7.981l5.188-7.981h5.187l-4.788 7.183 5.986 11.972h-6.385M154.657 254.523h-14.366v-19.155h14.366v4.39h-8.779v2.793h7.183v3.991l-7.183.399v3.192h8.779v4.39M54.891 254.922h-5.587v-14.765h-3.99v-4.789h13.568v4.79h-3.991v14.764M107.967 215.414H45.314V53.394H.22V1.516h151.644v51.878h-44.296v162.42"/>
			<path fill="#fff" d="M277.57 215.814H118.342v-47.888l71.033-53.474c12.77-11.174 27.934-23.944 27.934-42.301 0-11.972-7.582-21.949-19.953-21.949-19.953 0-25.54 19.953-26.338 36.315l-52.676-9.976c3.599-42.668 40.226-74.893 83.005-73.03 41.902 0 77.418 22.348 77.418 67.842 0 22.347-10.375 39.108-26.737 53.873l-48.287 35.916-5.188 3.193h81.41l-2.395 51.479"/>
		</g>
	</symbol>
	<symbol id="bwp" viewBox="0 0 205 41">
		<g fill="none" fill-rule="evenodd">
			<path fill="#fff" d="M10 .2v19c0 3.5 1.2 5.2 3.7 5.2 1.1 0 2-.4 2.7-1.1.7-.7 1.1-1.6 1.1-2.6 0-1.1-.3-2-1-2.7-.7-.7-1.6-1.1-2.6-1.1-.7 0-1.5.3-2.5.9V7.1c1.2-.1 2.1-.1 2.7-.1 3.7 0 6.8 1.3 9.4 4 2.6 2.6 3.9 5.8 3.9 9.6s-1.3 7-4 9.6c-2.7 2.6-5.9 3.9-9.8 3.9-1.9 0-3.8-.4-5.7-1.3-1.9-.9-3.4-2-4.6-3.4C1.2 26.9.2 23.6.2 19.7V.2H10zM31.7 7.8h9.8v14c0 1.1.1 1.9.3 2.3.2.4.6.6 1.2.6 1.1 0 1.6-1 1.6-2.9v-14h9.8v14c0 1.1.1 1.9.4 2.3.2.4.6.6 1.2.6 1.1 0 1.6-1 1.6-2.9v-14h9.8v16c0 2.9-1 5.4-2.9 7.5-2 2-4.4 3.1-7.2 3.1-2.9 0-5.5-1.2-7.8-3.7-2.5 2.4-5.1 3.7-7.7 3.7-3.3 0-5.9-1.2-7.8-3.5-1.6-1.9-2.3-4.5-2.3-8.1v-15zM82.4 40.8h-9.8V21.4c0-4 1-7.2 3.1-9.7 1.2-1.4 2.7-2.6 4.6-3.4C82.2 7.4 84.1 7 86 7c3.9 0 7.2 1.3 9.8 3.9 2.7 2.6 4 5.8 4 9.6 0 3.7-1.3 6.9-4 9.6-2.6 2.7-5.8 4-9.4 4-.6 0-1.5-.1-2.6-.2V23.1c.8.6 1.6 1 2.4 1 1 0 1.9-.4 2.6-1.1.7-.7 1.1-1.6 1.1-2.7 0-1-.4-1.9-1.1-2.6-.7-.7-1.6-1.1-2.7-1.1-2.5 0-3.8 1.7-3.8 5.2v19h.1z"/>
			<path d="M.2.2h204.5v40.6H.2z"/>
			<path fill="#fff" d="M108.6 3.5h1v33.4h-1z"/>
			<path fill="#fff" fill-rule="nonzero" d="M203.2 30.2c0 .5.4.8.8.8s.8-.4.8-.8-.4-.8-.8-.8c-.5 0-.8.4-.8.8zm-3.4.7h1l2.8-8.1h-1l-1.7 5.3c-.3.9-.5 1.5-.5 1.7 0-.2-.2-1.1-.5-1.8l-1.7-5.2h-1.1l2.7 8.1zm-5.3-.7c0 .5.4.8.8.8s.8-.4.8-.8-.4-.8-.8-.8-.8.4-.8.8zm-3.7-4.7c.5 0 .9.2 1.1.5.2.3.3.7.3 1.3h-2.7c0-1.1.5-1.8 1.3-1.8zm.4 4.7c-.6 0-1.1-.2-1.5-.7-.2-.3-.3-.7-.3-1.3v-.1h3.7V28c0-1.4-.2-2-.7-2.5-.4-.4-1-.7-1.6-.7-.7 0-1.3.3-1.8.8-.5.6-.7 1.2-.7 2.2 0 2 1 3.1 2.6 3.1.8 0 1.5-.3 2-.7l-.4-.6c-.3.5-.7.6-1.3.6zm-10.3-4.7c.5 0 .9.2 1.1.5.2.3.3.7.3 1.3h-2.7c0-1.1.5-1.8 1.3-1.8zm.4 4.7c-.6 0-1.1-.2-1.5-.7-.2-.3-.3-.7-.3-1.3v-.1h3.7V28c0-1.4-.2-2-.7-2.5-.4-.4-1-.7-1.6-.7-.7 0-1.3.3-1.8.8-.5.6-.7 1.2-.7 2.2 0 2 1 3.1 2.6 3.1.8 0 1.5-.3 2-.7l-.4-.6c-.2.5-.7.6-1.3.6zm-8-3.7c.5-.5 1-.8 1.6-.8.5 0 .9.2 1.1.7.2.3.3 1 .3 1.7s-.1 1.1-.2 1.5c-.2.4-.7.7-1.2.7s-1-.3-1.4-.8v-3h-.2zm-.9-.1v6.9l.9-.2v-2.8c.4.4 1 .7 1.6.7.8 0 1.4-.4 1.8-1.1.3-.5.5-1.1.5-2 0-1.1-.2-1.8-.7-2.3-.4-.5-1-.7-1.6-.7-.7 0-1.3.3-1.7.9v-.2c0-.3 0-.6-.1-.7l-1 .2c.2.2.3.7.3 1.3zm-9.4.1v4.4h.9v-4.4c.6-.6 1.1-.8 1.5-.8.3 0 .5.1.6.2.2.2.2.2.2.8v4.2h.9v-4.3l.1-.1c.2-.2.4-.4.6-.5.3-.2.6-.3.9-.3.5 0 .8.3.8.9V31h.9v-4.5c0-.9-.6-1.6-1.5-1.6-.6 0-1.3.4-1.9 1-.1-.2-.1-.3-.2-.4-.3-.4-.7-.6-1.2-.6-.3 0-.6.1-1 .3-.3.2-.5.3-.7.6 0-.2-.1-.6-.2-.8l-.9.2c.2.3.2.5.2 1.3zm-6.3 2.9c0 .3 0 .7.2.9.2.5.8.8 1.6.8s1.4-.3 1.9-.9c.1.4.2.6.6.9l.6-.6c-.2-.1-.2-.2-.3-.3-.1-.2-.1-.4-.1-1.1v-4.2l-.9.2v4.2c-.3.6-.9 1.1-1.5 1.1-.3 0-.5-.1-.7-.2-.3-.2-.3-.4-.3-1V25l-.9.2v4.2h-.2zm-5.7-2.9c.5-.5 1-.8 1.6-.8.5 0 .9.2 1.1.7.2.3.3 1 .3 1.7s-.1 1.1-.2 1.5c-.2.4-.7.7-1.2.7s-1-.3-1.4-.8v-3h-.2zm-.9-.1v6.9l.9-.2v-2.8c.4.4 1 .7 1.6.7.8 0 1.4-.4 1.8-1.1.3-.5.5-1.1.5-2 0-1.1-.2-1.8-.7-2.3-.4-.5-1-.7-1.6-.7-.7 0-1.3.3-1.7.9v-.2c0-.3 0-.6-.1-.7l-1 .2c.3.2.3.7.3 1.3zm-3.9-.9c.5 0 .9.2 1.1.5.2.3.3.7.3 1.3h-2.7c0-1.1.5-1.8 1.3-1.8zm.4 4.7c-.6 0-1.1-.2-1.5-.7-.2-.3-.3-.7-.3-1.3v-.1h3.7V28c0-1.4-.2-2-.7-2.5-.4-.4-1-.7-1.6-.7-.7 0-1.3.3-1.8.8-.5.6-.7 1.2-.7 2.2 0 2 1 3.1 2.6 3.1.8 0 1.5-.3 2-.7l-.4-.6c-.3.5-.7.6-1.3.6zm-11.7-3.7v4.4h.9v-4.4c.6-.6 1.1-.8 1.5-.8.3 0 .5.1.6.2.2.2.2.2.2.8v4.2h.9v-4.3l.1-.1c.2-.2.4-.4.6-.5.3-.2.6-.3.9-.3.5 0 .8.3.8.9V31h.9v-4.5c0-.9-.6-1.6-1.5-1.6-.6 0-1.3.4-1.9 1-.1-.2-.1-.3-.2-.4-.3-.4-.7-.6-1.2-.6-.3 0-.6.1-1 .3-.3.2-.5.3-.7.6 0-.2-.1-.6-.2-.8l-.9.2c.2.3.2.5.2 1.3zm-3.8-.1v4.5h.9v-3.7c0-.5.1-.7.3-.9.2-.2.6-.4 1-.4h.3l.4-1s-.2-.1-.3-.1c-.6 0-1.2.4-1.7 1v-.1c0-.4-.1-.6-.2-.9l-.9.2c.2.4.2.7.2 1.4zm-3.4-2.9c0 .3.3.6.6.6s.6-.3.6-.6-.3-.6-.6-.6c-.4 0-.6.3-.6.6zm-2.5 0c0 .3.3.6.6.6s.6-.3.6-.6-.3-.6-.6-.6-.6.3-.6.6zm2.9 5.9c-.3.6-.8.9-1.4.9-.7 0-1-.4-1-1.1 0-.4.1-.7.3-.9.3-.3.8-.5 1.7-.5h.5l-.1 1.6zm-2.8-3.1c.3-.2.4-.3.7-.4.4-.2.8-.3 1.1-.3.4 0 .6.1.8.3.2.2.2.4.2.9v.4h-.4c-2 0-3.1.8-3.1 2.1 0 .4.1.9.5 1.2.3.3.7.5 1.4.5s1.1-.2 1.7-.8c.1.4.4.7.8.9l.5-.7c-.4-.2-.5-.5-.5-1.2V26.7c0-.5 0-.7-.1-1-.2-.6-.8-.9-1.6-.9-.9 0-1.7.3-2.5.8l.5.7zm-8.7 4.6h1.3l1-4.6c.1-.6.3-1.6.4-2.2.1.7.2 1.5.4 2.3l1 4.5h1.3l1.9-8.1h-1l-1 4.7c-.2.9-.4 2-.5 2.5l-.5-2.5-1.1-4.7h-1.1l-1.1 4.9c-.2.8-.3 1.6-.5 2.4-.1-.8-.2-1.5-.4-2.5l-1-4.8h-1l1.9 8.1zM190.7 15.1c0 .1-.1.3-.4.4-.4.3-.7.4-1.1.4-.4 0-.7-.1-1-.4-.4-.4-.5-.8-.5-1.9 0-.8.1-1.3.4-1.7.2-.4.6-.6 1.1-.6.7 0 1.1.2 1.4.6v3.2h.1zm0-7.1v3.4c-.4-.5-.9-.8-1.6-.8-.4 0-.8.1-1.1.4-.8.6-1.2 1.5-1.2 2.7 0 1.9.9 3 2.4 3 .5 0 .9-.1 1.2-.3.2-.1.2-.2.4-.4 0 .3 0 .4.1.6h.9c-.1-.2-.1-.3-.1-.5 0-.3-.1-.8-.1-1.4V8.1l-.9-.1zm-10 4.2v4.4h.9v-4.4c.4-.5 1.2-.8 1.6-.8.3 0 .5.1.7.2.2.2.2.4.2 1v4h.9v-4.5c0-.2 0-.5-.1-.7-.2-.5-.8-.9-1.4-.9-.6 0-1.2.3-1.9.9 0-.3-.1-.6-.2-.9l-.9.2c.2.6.2.7.2 1.5zm-2.9 3c-.3.6-.8.9-1.4.9-.7 0-1-.4-1-1.1 0-.4.1-.7.3-.9.3-.3.8-.5 1.7-.5h.5l-.1 1.6zm-2.9-3.2c.3-.2.4-.3.7-.4.4-.2.8-.3 1.1-.3.4 0 .6.1.8.3.2.2.2.4.2.9v.5h-.4c-2 0-3.1.8-3.1 2.1 0 .4.1.9.5 1.2.3.3.7.5 1.4.5s1.1-.2 1.7-.8c.1.4.4.7.8.9l.5-.7c-.4-.2-.5-.4-.5-1.2V12.5c0-.5 0-.7-.1-1-.2-.6-.8-.9-1.6-.9-.9 0-1.7.3-2.5.8l.5.6zm-5.4-.2c.4-.3.7-.4 1.1-.4.5 0 .9.2 1.1.5.2.3.3.8.3 1.6 0 1-.2 1.6-.4 1.9-.2.3-.7.5-1.1.5-.6 0-1.2-.3-1.5-.7v-3c.2-.2.2-.2.5-.4zm-1.6-3.6c.2.3.2.8.2 1.4v5.6c0 .8 0 1.2-.2 1.5h.9c.1-.2.1-.3.2-.6.3.4 1 .8 1.6.8 1.4 0 2.3-1.3 2.3-3.2 0-1.9-.9-3-2.3-3-.6 0-1.1.2-1.7.8V9.4c0-.6 0-1-.2-1.5l-.8.3zm-3.5 3.9v4.5h.9v-3.7c0-.5.1-.7.3-.9.3-.3.6-.4 1-.4h.3l.4-1s-.2-.1-.3-.1c-.6 0-1.2.4-1.7 1v-.1c0-.4-.1-.6-.2-.9l-.9.2c.2.5.2.8.2 1.4zm-3.9-.8c.5 0 .9.2 1.1.5.2.3.3.7.3 1.3h-2.7c-.1-1.2.4-1.8 1.3-1.8zm.3 4.7c-.6 0-1.1-.2-1.5-.7-.2-.3-.3-.7-.3-1.3v-.1h3.7v-.1c0-1.4-.2-2-.7-2.5-.4-.4-1-.7-1.6-.7-.7 0-1.3.3-1.8.8-.5.6-.7 1.2-.7 2.2 0 2 1 3.1 2.6 3.1.8 0 1.5-.3 2-.7l-.4-.6c-.2.4-.7.6-1.3.6zm-6.6.7h.9l2.2-6h-1l-1.3 3.9c-.1.4-.2.7-.3 1-.1-.3-.2-.6-.3-1l-1.4-4.1-.9.2 2.1 6zm-5-6.2c-1.2 0-2.1.7-2.1 1.8 0 .4.1.7.4 1 .3.3.6.5 1.1.6l.7.2c.7.1 1 .4 1 1s-.5 1-1.2 1-1.3-.2-1.9-.6l-.4.7c.6.4 1.4.6 2.2.6 1.3 0 2.2-.8 2.2-1.9 0-.9-.5-1.4-1.6-1.6l-.8-.2c-.4-.1-.6-.2-.7-.3-.1-.1-.2-.3-.2-.5 0-.6.4-1 1.1-1 .5 0 1 .2 1.5.4l.5-.7c-.5-.3-1.2-.5-1.8-.5zm-5.6.8c.5 0 .9.2 1.1.5.2.3.3.7.3 1.3h-2.7c0-1.2.5-1.8 1.3-1.8zm.4 4.7c-.6 0-1.1-.2-1.5-.7-.2-.3-.3-.7-.3-1.3v-.1h3.7v-.1c0-1.4-.2-2-.7-2.5-.4-.4-1-.7-1.6-.7-.7 0-1.3.3-1.8.8-.5.6-.7 1.2-.7 2.2 0 2 1 3.1 2.6 3.1.8 0 1.5-.3 2-.7l-.4-.6c-.3.4-.8.6-1.3.6zm-5.3-.9c0 .1-.1.3-.4.4-.4.3-.7.4-1.1.4-.4 0-.7-.1-1-.4-.4-.4-.5-.8-.5-1.9 0-.8.1-1.3.4-1.7.2-.4.6-.6 1.1-.6.7 0 1.1.2 1.4.6v3.2h.1zm0-7.1v3.4c-.4-.5-.9-.8-1.6-.8-.4 0-.8.1-1.1.4-.8.6-1.2 1.5-1.2 2.7 0 1.9.9 3 2.4 3 .5 0 .9-.1 1.2-.3.2-.1.2-.2.4-.4 0 .3 0 .4.1.6h.9c-.1-.2-.1-.3-.1-.5 0-.3-.1-.8-.1-1.4V8.1l-.9-.1zm-10 4.2v4.4h.9v-4.4c.4-.5 1.2-.8 1.6-.8.3 0 .5.1.7.2.2.2.2.4.2 1v4h.9v-4.5c0-.2 0-.5-.1-.7-.2-.5-.8-.9-1.4-.9-.6 0-1.2.3-1.9.9 0-.3-.1-.6-.2-.9l-.9.2c.2.6.2.7.2 1.5zm-6.4 2.9c0 .3 0 .7.2.9.2.5.8.8 1.6.8s1.4-.3 1.9-.9c.1.4.2.6.6.9l.6-.6c-.2-.1-.2-.2-.3-.3-.1-.2-.1-.4-.1-1.1v-4.2l-.9.2V15c-.3.6-.9 1.1-1.5 1.1-.3 0-.5-.1-.7-.2-.3-.2-.3-.4-.3-1v-4.2l-.9.2v4.2h-.2zm-4.4-2.3c.4 0 .7 0 1 .1.6.1 1 .7 1 1.4 0 .2 0 .5-.1.7-.3.7-.6.8-1.6.8h-1.6v-3h1.3zm-.3-3.5c.4 0 .7 0 .9.1.6.1.9.6.9 1.3 0 .2 0 .4-.1.6-.2.5-.5.7-1.4.7h-1.4V9.3h1.1zm-2.1 7.3h2.1c1.2 0 1.4 0 1.9-.2.8-.3 1.4-1.1 1.4-2 0-.6-.3-1.3-.7-1.6-.3-.2-.5-.3-1.1-.5.9-.3 1.5-.9 1.5-1.8 0-.8-.6-1.6-1.4-1.9-.4-.1-.8-.2-2.4-.2h-1.2v8.2h-.1z"/>
			<path d="M.2.2h204.5v40.6H.2z"/>
		</g>
	</symbol>
	<symbol id="ubisoft" viewBox="0 0 1006 920">
		<g fill="#fff" fill-rule="evenodd">
			<path d="M6 732.61v111.62c0 45.322 30.895 74.21 75.891 74.21 47.33 0 76.3-30.464 76.3-77.267V732.61h-40.06v106.524c0 25.52-12.852 41.346-35.813 41.346-25.164 0-36.257-18.2-36.257-39.307V732.61H6z"/>
			<path fill-rule="nonzero" d="M177.668 734.152v182.467h63.806c35.339 0 65.367-18.024 65.367-53.772 0-37.314-32.652-45.585-32.652-45.585s24.178-6.716 24.178-38.64c0-31.903-30.56-44.47-56.893-44.47h-63.806zm40.36 34.658h19.369c13.442 0 22.043 7.08 22.043 19.4 0 11.02-7.297 19.336-21.024 19.336h-20.387V768.81zm0 67.279h21.407c20.13 0 27.11 10.34 27.11 22.68 0 14.359-9.029 22.777-25.071 22.777h-23.445V836.09z"/>
			<path d="M322.004 734.14h40.265v182.466h-40.265zM761.352 916.606h-40.265V734.14h126.401v37.716h-86.136v41.794h78.491v30.581h-78.491zM862.269 734.14v37.715h51.988v144.751h40.775v-144.75H1006v-37.717zM408.236 855.934l-31.987 23.387s11.053 40.425 66.465 40.425c36.9 0 64.053-21.534 64.053-59.392 0-61.011-85.31-48.068-85.31-79.444 0-8.257 7.343-15.551 20.895-15.551 21.744 0 30.008 21.33 30.008 21.33l31.996-22.455s-12.497-33.313-60.397-33.313c-39.365 0-60.276 25.255-60.276 51.315 0 62.175 82.826 48.68 82.826 81.31 0 11.011-8.677 19.102-22.191 19.009-26.775 0-36.082-26.621-36.082-26.621z"/>
			<path fill-rule="nonzero" d="M610.74 730.837c-47.417 0-68.552 25.739-68.552 25.739l6.116 6.116s-30.677 21.79-30.677 68.584c0 53.845 41.527 88.43 93.336 88.43 60.198 0 94.355-44.418 94.355-94.355 0-53.25-38.996-94.514-94.578-94.514zm.86 37.876c32.15 0 53.007 24.573 53.007 56.479 0 31.575-20.608 56.83-53.007 56.83-32.009 0-53.039-22.352-53.039-52.02 0-27.001 18.285-38.768 18.285-38.768l-6.626-6.626s14.099-15.895 41.38-15.895zM487.516 5c-206.798 0-296.06 184.072-296.06 184.072l26.275 18.81s-33.065 62.879-32.15 143.53c0 164.64 131.058 319.732 323.986 319.732 175.268 0 320.05-142.657 320.05-319.327C829.617 121.399 650.935 5 487.517 5zm1.794 56.168c161.571 0 286.946 130.2 286.946 281.563 0 160.455-120.68 272.042-261.307 272.042-103.498 0-196.863-78.816-196.863-186.879 0-62.415 33.174-105.928 70.348-129.119l5.44 5.903c-10.173 7.96-39.181 54.557-39.181 100.356 0 85.022 66.674 143.906 150.678 143.906 107.006 0 178.371-91.267 178.371-197.238 0-123.296-108.833-227.971-239.806-227.971-72.442 0-133.926 31.154-169.256 58.657l-5.498-4.977C315.403 106.144 395.446 61.168 489.31 61.168zm-48.21 117.95c83.58 0 165.18 55.293 185.548 133.778l-7.408 2.807c-36.571-48.294-96.496-88.317-167.26-88.317-130.212 0-198.596 118.323-188.557 217.147l-7.668 2.808s-14.382-31.734-14.382-69.364c0-108.97 89.488-198.86 199.727-198.86zm55.242 136.759c39.57 0 71.216 32.072 71.216 70.145 0 31.506-20.228 50.178-20.228 50.178l23.96 16.755s-23.759 37.3-72.257 37.3c-46.391 0-87.42-37.444-87.42-87.797 0-51.884 44.629-86.582 84.73-86.582z"/>
		</g>
	</symbol>
	<symbol id="dgk" viewBox="0 0 477 486">
		<g fill="none" fill-rule="evenodd">
			<path fill="#fff" d="M174.338 178.617V72.281h129.253v106.336h106.337v129.254H303.591v106.234H174.338V307.871H68.096V178.617h106.242M71.098 354.41l13.078 18.48-2.611 1.85-11.047-15.602-10.984 7.77 10.271 14.512-2.611 1.858-10.271-14.512L42.27 379.13l-2.031-2.885 30.859-21.835"/>
			<path fill="#fff" fill-rule="nonzero" d="M87.884 411.518c-5.896 5.504-13.65 7.99-20.682.447-7.033-7.534-4.007-15.1 1.89-20.596l17.067-15.924 2.407 2.58-16.41 15.304c-3.943 3.677-8.623 10.012-2.61 16.457 6.013 6.444 12.654 2.218 16.598-1.467l16.401-15.296 2.407 2.58-17.068 15.915zm11.243-36.26c.98 1.058.925 2.641-.125 3.621a2.529 2.529 0 0 1-3.623-.125c-.987-1.058-.933-2.642.126-3.622 1.05-.988 2.634-.925 3.622.125zm6.915 7.424c.988 1.05.933 2.634-.117 3.622a2.539 2.539 0 0 1-3.63-.133 2.526 2.526 0 0 1 .125-3.614c1.058-.988 2.642-.933 3.622.125zM109.703 399.71l7.786 6.171c2.344 1.858 10.545 8.358 4.375 16.143-4.477 5.653-10.02 3.779-13.61 1.615l-2.667 21.067-3.136-2.493 2.823-20.667-5.151-4.077-11.149 14.065-2.76-2.195 23.49-29.628zm-7.589 15.25l5.857 4.641c5.817 4.61 9.502 2.29 11.133.236 1.623-2.054 3.05-6.17-2.768-10.78l-5.864-4.642-8.358 10.545z"/>
			<path fill="#fff" d="M155.177 468.32c-5.026.44-9.77-.76-14.23-2.822-10.467-4.845-14.238-15.775-9.393-26.233 4.845-10.475 15.618-14.67 26.084-9.824 5.089 2.36 8.491 5.817 10.161 10.474l-3.45 1.349c-.917-3.489-4.32-7.182-8.051-8.914-8.97-4.148-17.594-.142-21.545 8.389-3.944 8.53-1.427 17.703 7.542 21.85 3.685 1.71 7.205 2.752 10.537 2.415l5.34-11.54-8.24-3.811 1.348-2.909 11.439 5.292-7.542 16.284M176.408 438.049l22.368 5.873-.815 3.097-18.958-4.979-3.418 13.023 17.773 4.657-.815 3.104-17.766-4.657-3.74 14.254 19.781 5.19-.815 3.097-23.192-6.084 9.597-36.575"/>
			<g transform="matrix(0 1 1 0 -2.004 -.092)">
				<g fill="#fff" mask="url(#dgk-b)">
					<path d="M475.515 203.5c3.34 1.49 5.285 4.32 5.732 8.036.548 4.72-1.882 8.766-6.39 9.299-10.498 1.238-6.625-18.848-20.886-17.17-6.688.784-9.62 6.938-8.883 13.25.486 4.076 2.281 7.526 5.927 9.682l1.819-3.277c-2.642-1.466-4.195-3.654-4.571-6.892-.533-4.508 1.34-8.702 6.115-9.267 11.298-1.325 6.782 18.832 20.894 17.178 6.79-.8 9.903-6.813 9.181-12.913-.58-4.931-2.681-9.094-7.11-11.532l-1.828 3.606M470.38 259.542c8.068.164 15.5-3.16 15.712-13.462.212-10.302-7.088-13.924-15.147-14.089l-23.333-.478-.07 3.52 22.423.463c5.394.11 13.1 1.709 12.928 10.521-.18 8.805-7.958 10.09-13.352 9.98l-22.423-.462-.07 3.528 23.332.479"/>
				</g>
			</g>
			<path fill="#fff" d="M262.948 446.501l4.461-.87 28.922 28.107.102-.024-6.327-32.497 3.458-.674 7.228 37.115-4.461.87-28.922-28.115-.102.024 6.327 32.505-3.465.675-7.221-37.116"/>
			<path fill="#fff" fill-rule="nonzero" d="M299.31 438.833l10.883-4.265c18.299-7.166 24.924 7.558 25.943 10.153 1.011 2.58 6.139 17.892-12.16 25.058l-10.89 4.265-13.775-35.21zm15.885 30.938l6.774-2.65c9.345-3.654 14.833-11.023 10.882-21.122-3.951-10.09-12.983-11.776-22.329-8.114l-6.774 2.642 11.447 29.244z"/>
			<path fill="#fff" d="M332.851 425.043l3.003-1.843 8.655 14.238 18.08-10.984-8.664-14.238 3.011-1.827 19.648 32.302-3.011 1.834-9.322-15.335-18.072 10.992 9.322 15.328-3.01 1.834-19.64-32.301M362.361 406.163l17.672-14.912 2.07 2.446-14.983 12.639 8.68 10.286 14.041-11.846 2.07 2.454-14.049 11.838 9.502 11.267 15.633-13.18 2.07 2.446-18.33 15.461-24.376-28.899M383.961 386.884l2.454-2.524 27.08 26.39-2.462 2.524-27.072-26.39M399.587 374.324l-8.099 10.075-2.501-2.015 18.401-22.885 2.501 1.999-8.091 10.074 26.97 21.686-2.211 2.744-26.97-21.678M39.299 343.693a4.195 4.195 0 0 1 1.858-5.645 4.206 4.206 0 0 1 5.645 1.858 4.198 4.198 0 0 1-1.866 5.645 4.184 4.184 0 0 1-5.637-1.858"/>
			<path fill="#fff" fill-rule="nonzero" d="M13.27 316.699l-2.902-11.33c-4.876-19.035 10.545-23.818 13.235-24.5 2.697-.69 18.518-3.92 23.395 15.124l2.893 11.33-36.622 9.376zm32.646-11.996l-1.796-7.04c-2.493-9.73-9.134-16.072-19.64-13.383-10.505 2.689-13.273 11.446-10.787 21.176l1.803 7.033 30.42-7.786z"/>
			<path fill="#fff" d="M3.202 268.129l-1.38-23.082 3.199-.196 1.168 19.57 13.431-.8-1.09-18.338 3.199-.196 1.089 18.346 14.717-.886-1.216-20.416 3.199-.188 1.427 23.936-37.743 2.25M28.77 203.173c8.004.988 14.896 5.331 13.633 15.563-1.254 10.223-8.992 12.771-16.997 11.784l-23.168-2.846.431-3.497 22.266 2.736c5.355.659 13.211.173 14.293-8.57 1.074-8.749-6.437-11.124-11.792-11.783l-22.258-2.744.431-3.497 23.16 2.854M15.558 174.658l-3.88 12.325-3.058-.957 8.82-28.02 3.058.964-3.881 12.325 33.007 10.388-1.058 3.363-33.008-10.388M51.372 157.48c3.654-.227 6.469-2.218 8.162-5.543 2.156-4.241 1.286-8.883-2.76-10.937-9.424-4.806-12.748 15.383-25.55 8.86-5.999-3.058-6.61-9.848-3.733-15.508 1.866-3.662 4.751-6.265 8.922-7.025l.565 3.708c-2.987.455-5.198 1.968-6.68 4.87-2.054 4.045-1.756 8.631 2.525 10.81 10.137 5.167 12.897-15.303 25.55-8.859 6.093 3.105 6.924 9.824 4.14 15.297-2.258 4.421-5.676 7.597-10.67 8.35l-.47-4.023M86.755 104.833c1.725 5.826.306 10.93-3.065 15.344-7.01 9.157-18.495 10.459-27.653 3.45-9.165-7.01-10.913-18.433-3.904-27.598 3.113-4.07 7.268-6.68 12.63-6.743l.157 3.748c-4.233-.274-7.934 1.936-10.239 4.947-6.006 7.84-3.967 17.13 3.497 22.846 7.464 5.716 16.966 5.246 22.964-2.603 2.305-3.01 3.724-7.84 2.124-12.434l3.49-.957M72.957 73.692l2.665-2.32 10.937 12.575 15.955-13.885-10.937-12.568 2.658-2.312 24.814 28.522-2.658 2.313-11.776-13.54L88.66 86.362l11.776 13.54-2.657 2.313-24.822-28.523M110.621 43.829l19.969-11.651 1.615 2.76-16.927 9.879 6.782 11.627 15.868-9.259 1.607 2.767-15.868 9.259 7.432 12.733 17.664-10.302 1.615 2.76-20.713 12.089-19.044-32.662"/>
			<g transform="matrix(0 1 1 0 -2.004 -.092)">
				<g fill="#fff" mask="url(#dgk-d)">
					<path d="M53.4 160.395c2.289 2.861 2.72 6.272 1.403 9.776-1.67 4.446-5.692 6.931-9.934 5.332-9.902-3.724 2.76-19.789-10.686-24.846-6.303-2.368-11.729 1.756-13.963 7.7-1.45 3.849-1.427 7.737.823 11.32l3.12-2.077c-1.685-2.51-2.054-5.167-.909-8.209 1.6-4.257 5.19-7.127 9.69-5.433 10.647 4.006-2.618 19.843 10.679 24.845 6.405 2.407 11.925-1.513 14.089-7.26 1.74-4.649 1.787-9.306-1.027-13.508l-3.285 2.36M41.169 240.333c2.854-4.17 4.14-8.89 4.531-13.783.918-11.501-6.758-20.15-18.251-21.066-11.502-.918-20.44 6.413-21.357 17.907-.447 5.59.894 10.255 4.132 13.994l2.87-2.344c-2.588-2.509-4.14-7.3-3.811-11.392.784-9.847 8.514-15.398 17.883-14.645 9.37.745 16.12 7.44 15.336 17.287-.322 4.046-1.137 7.629-3.074 10.365l-12.67-1.011.722-9.048-3.199-.25-.996 12.56 17.884 1.426"/>
					<path fill-rule="nonzero" d="M6.75 257.637l1.13 9.87c.344 2.972 1.528 13.368 11.399 12.239 7.166-.823 8.499-6.508 8.554-10.71l19.294 8.867-.454-3.982-19.036-8.523-.745-6.523 17.828-2.038-.4-3.505-37.57 4.305zm16.95 1.607l.855 7.424c.847 7.378-3.073 9.275-5.676 9.573-2.603.298-6.844-.666-7.691-8.044l-.855-7.424 13.368-1.53zM43.254 317.167c7.707-2.376 13.729-7.864 10.694-17.719-3.042-9.847-11.11-10.992-18.808-8.616l-22.306 6.876 1.043 3.363 21.435-6.601c5.151-1.592 12.976-2.493 15.57 5.927 2.596 8.42-4.374 12.082-9.533 13.665l-21.435 6.61 1.035 3.363 22.305-6.868zm-37.045-8.31c.424 1.38 1.827 2.116 3.207 1.693a2.525 2.525 0 0 0 1.694-3.199c-.424-1.38-1.827-2.125-3.2-1.701a2.535 2.535 0 0 0-1.7 3.206zm2.988 9.698a2.548 2.548 0 0 0 3.214 1.693 2.526 2.526 0 0 0 1.686-3.206c-.424-1.38-1.82-2.117-3.2-1.694-1.379.424-2.116 1.827-1.7 3.207z"/>
				</g>
			</g>
			<path fill="#fff" d="M340.401 28.501l3.967 2.203 4.014 40.127.094.054 16.096-28.938 3.082 1.717-18.378 33.039-3.967-2.203-4.022-40.126-.086-.055-16.104 28.938-3.081-1.717 18.385-33.039M383.93 55.511l17.64 14.943-2.07 2.446-14.951-12.669-8.702 10.27 14.018 11.87-2.07 2.446-14.018-11.87-9.526 11.243 15.602 13.219-2.07 2.446-18.299-15.5 24.446-28.844M390.931 103.72c-1.2 3.458-.455 6.821 1.952 9.675 3.066 3.63 7.684 4.626 11.157 1.701 8.075-6.829-9.236-17.726 1.74-26.994 5.144-4.343 11.643-2.273 15.736 2.58 2.658 3.144 3.935 6.813 3.026 10.945l-3.646-.917c.745-2.933.204-5.551-1.89-8.037-2.931-3.473-7.283-4.978-10.952-1.873-8.687 7.338 9.11 17.82-1.748 26.985-5.222 4.407-11.73 2.572-15.696-2.124-3.207-3.787-4.806-8.17-3.56-13.07l3.881 1.13M448.259 131.537l1.513 3.183-15.046 7.151.142.29 22.909 9.392 2.085 4.391-23.834-9.84-9.855 27.033-2.18-4.578 9.424-25.708-.133-.291-17.656 8.389-1.513-3.183 34.144-16.229"/>
			<path fill="#fff" fill-rule="nonzero" d="M464.621 170.048l2.627 9.58c.8 2.886 3.567 12.976-6.014 15.61-6.946 1.906-10.31-2.869-11.933-6.75l-14.59 15.422-1.067-3.865 14.49-14.999-1.741-6.334-17.304 4.75-.933-3.394 36.465-10.02zm-15.14 7.817l1.984 7.205c1.968 7.166 6.32 7.464 8.836 6.766 2.533-.69 6.108-3.167 4.148-10.333l-1.984-7.205-12.983 3.567z"/>
			<path fill="#fff" d="M473.786 209.814l2.203 23.018-3.183.306-1.866-19.506-13.399 1.278 1.749 18.291-3.191.298-1.749-18.284-14.676 1.404 1.944 20.361-3.183.306-2.282-23.874 37.633-3.598M450.548 275.648c-8.036-.69-15.077-4.79-14.183-15.061.894-10.271 8.538-13.086 16.566-12.388l23.247 2.023-.298 3.512-22.345-1.944c-5.378-.47-13.219.298-13.979 9.079-.76 8.78 6.829 10.882 12.2 11.353l22.344 1.936-.306 3.512-23.246-2.022M437.329 283.323l24.893 29.707 5.731-21.02 3.097.847-6.931 25.394-2.783-.752-24.744-29.84-6.013 22.054-3.097-.846 7.174-26.273 2.673.729M438.78 343.599a4.196 4.196 0 0 1-5.645 1.866 4.2 4.2 0 1 1 3.779-7.503 4.194 4.194 0 0 1 1.866 5.637"/>
		</g>
	</symbol>
	<symbol id="email" viewBox="0 0 358 358">
		<path fill="#000" fill-rule="evenodd" d="M181.01 237.25A58.31 58.31 0 0 1 122.77 179 58.31 58.31 0 0 1 181 120.75 58.31 58.31 0 0 1 239.26 179 58.31 58.31 0 0 1 181 237.25zm136.3-171.43a177.53 177.53 0 0 0-120.55-64.6A177.53 177.53 0 0 0 65.79 40.66c-76.28 62.4-87.57 175.24-25.16 251.52 30.19 36.9 73 59.84 120.56 64.6 6.08.6 12.14.9 18.17.9 41.12 0 80.61-14.01 112.8-40.34A17.02 17.02 0 0 0 270.6 291a143.68 143.68 0 0 1-106.03 31.92 143.72 143.72 0 0 1-97.6-52.29C16.44 208.87 25.58 117.53 87.34 67a143.69 143.69 0 0 1 106.03-31.91 143.72 143.72 0 0 1 97.6 52.28c28.16 34.41 38.82 79.17 29.25 122.8l-.2 1.04c-2.39 9.59-6.85 16.67-12.6 20-4.35 2.5-9.43 2.9-15.1 1.2-19.73-5.94-18.95-36-18.94-36.21l.01-96.29a17.02 17.02 0 1 0-34.03 0v7.67A91.84 91.84 0 0 0 181 86.72c-50.88 0-92.27 41.4-92.27 92.28s41.4 92.28 92.27 92.28a92 92 0 0 0 69.33-31.58c6.67 11.1 16.88 20.7 32.17 25.3 14.58 4.38 29.46 2.85 41.9-4.31 14.28-8.23 24.26-22.83 28.87-42.22l.3-1.53c11.6-53.68-1.6-108.74-36.27-151.12z"/>
	</symbol>
	<symbol id="phone" viewBox="0 0 110 189">
		<g fill="#000" fill-rule="evenodd">
			<path d="M54.8 172.43c-5.6 0-10.14-4.54-10.14-10.13a10.15 10.15 0 0 1 20.28 0c0 5.59-4.55 10.13-10.14 10.13zm0-14.25a4.14 4.14 0 0 0-4.14 4.12 4.14 4.14 0 0 0 8.28 0 4.14 4.14 0 0 0-4.14-4.12z"/>
			<path d="M85.93 188.24H23.66A23.37 23.37 0 0 1 .3 164.9V23.57A23.37 23.37 0 0 1 23.66.24h62.27a23.38 23.38 0 0 1 23.37 23.33V164.9a23.38 23.38 0 0 1-23.37 23.33zm-62.27-176A11.36 11.36 0 0 0 12.3 23.57V164.9c0 6.24 5.1 11.33 11.36 11.33h62.27c6.27 0 11.37-5.09 11.37-11.34V23.57c0-6.25-5.1-11.33-11.37-11.33H23.66z"/>
			<path d="M16.77 148.1h76.06V29.78H16.77V148.1zm6-6h64.06V35.78H22.77V142.1zM43.16 25.91h23.28v-6H43.16z"/>
		</g>
	</symbol>
	<symbol id="rotkaepchen" viewBox="0 0 555 120">
		<g fill="#fff" fill-rule="evenodd">
			<path fill-rule="nonzero" d="M303.98 58.33c3.59-3.02 13.02-8.73 18.13-4.07 4.13 3.77-1.23 13.42-4.06 17.52-4.72 6.85-12.3 14.48-18.76 19.72-4.27 3.46-9.37 7.8-15.95 6.57-4.5-.84-5.16-6.02-3.44-10.95-9.14 10.04-18.22 23-27.82 33.79h-8.13c-1.4-.48.48-1.37.62-1.56 6.56-8.68 15.31-17.68 22.2-26.29-3.59 1.57-11.48 8.68-16.88 5.32-2.08-1.29-2.63-5.43-1.88-9.07-3.96 1.42-12.74 13.4-20 8.44-2.76-1.87-3.1-9.14-.63-12.2-1.1-.07-2.1 1.02-2.82 1.57-4.4 3.36-9.12 7.29-15 10-2.17 1-5.42 2.28-8.13 1.57-2.53-.65-3.6-3.55-3.75-4.38-.79-4.36 2.22-8.03 4.37-10.95 1.44-1.96 4.05-3.93 4.07-5.94.02-2.53-2.82-4.66-6.57-3.76-1.89.46-3.84 3.7-5.31 5.63-4.54 5.93-9.94 13.22-14.39 18.46h-8.75c1.14-2.3 2.83-4.04 4.38-5.94-3.44 1.88-8 5.8-13.14 6.88-10.86 2.29-11.36-10.9-6.25-17.2-3.18 2.46-11.53 3.87-15 .62-4.41 5.77-13 17.57-23.46 16.27-4.66-.58-6.92-8.71-4.06-14.08-3.94 2.1-8.92 7.93-14.39 11.26-4.24 2.6-14.97 6-15.63-1.87-.15-1.84.39-4.13.94-5.64 1.73-4.7 6.64-9.95 10.32-14.08 3.62-4.06 10.22-8.58 6.56-15.02-4.72-1.14-12.04 2.05-15.32-1.25-.08-6.76 11.88-4 14.38-1.56 6.05-2.71 12.75-5.7 17.51-10.64 5.65-5.85 10.13-17.92 5.95-27.22C91.36 30 82.18 65.64 59.16 88.68c-9.3 9.3-19.78 16.75-38.46 15.33C9.91 103.2 1.2 97.05 1 84.93c-.15-9.96 4.65-18.44 10-25.04 5.22-6.41 12.28-12.36 20.33-14.39 11.62-2.93 22.26 4.43 23.45 14.08 1.66 13.43-7.85 22.5-16.57 26.91.62-1.73 2.17-3.2 3.44-5 3.03-4.33 7.11-11.3 7.19-18.15.09-7.64-5.12-17.92-14.07-15.02-6.74 2.18-12.73 9.58-17.2 15.96-4.76 6.8-9.4 14.5-9.06 23.78.34 9.55 7.18 14.73 19.07 13.45 10.29-1.1 19.58-12.7 25.95-20.65 3.4-4.24 6.33-8.53 9.38-12.83 3.06-4.3 5.93-8.83 9.07-12.83 14.58-18.58 30.4-29.34 50.34-38.17-4.27-6.92-17.3-10.72-29.08-7.51.69 10.33-3.65 17.82-10.32 25.34-6.2 7-12.76 13.09-25.01 11.58-5.88-.72-8.98-4.6-8.13-12.51.52-4.83 3.48-9.55 6.25-12.52 7.15-7.65 19.69-12.08 30.33-13.77-2.6-9.43-15.98-5.59-23.14-1.56a57.56 57.56 0 0 0-5.94 3.75c-1.89 1.4-3.25 3.78-5.31 3.76-.1-1.74 2.48-3.4 4.06-4.7C61.68 4.3 69.72-.9 80.73.13c5.4.5 8.84 2.84 11.57 6.57 15.23-1.6 28.36 1.4 35.96 8.45 1.8-.04 5.21-1.58 6.56 0-.53 1.66-3.84.53-5.31 1.25 1.54 2.23 3.4 5.44 3.44 9.7.12 17.17-16.8 27.24-30.02 31.6 2 2.11 3.27 3.32 2.82 7.83-1.18 11.75-15 17.87-17.2 28.78 2.36 2.67 6.79.46 8.75-.62 4.87-2.68 9.5-7.3 14.07-11.27 9.08-7.87 15.48-17.18 25.64-24.4 4.8-3.42 10.94-7.35 18.14-5.63 1.9 6.58-2.4 12.85-5.32 17.2-2.5 3.74-5.1 7.34-7.5 10.33 1.4 1.58 2.8 2.27 5.31 2.19 7.03-.2 12.06-7.32 16.26-12.2 4.92-5.72 9.47-10.85 12.82-15.65H166.4c-1.25.15.65-1.7.94-1.88 2.2-1.37 8.13.24 10.94-.62 1.6-.5 3.42-3.54 5-5.32a844.08 844.08 0 0 1 14.7-15.96h8.44c-5.73 7.6-12.7 13.99-18.44 21.6 4.2-.7 9.67-.13 14.38-.32-.74 3.32-3.99 2.5-6.88 2.5-2.63 0-6.89-.49-9.07.32-.96.35-2.97 2.93-4.37 4.69-3.97 4.98-8.24 10.47-11.88 15.02-2.62 3.26-5.54 6.6-7.82 10.01-2.41 3.6-5.8 7.62-4.07 12.52 5.28.64 9.6-3.21 13.14-5.95 10.92-8.45 19.21-19.6 27.82-30.35 11.57-14.45 23.65-28.57 35.34-42.24h7.81c1.12.14-.51 1.91-.94 2.5-4.27 5.96-9.88 12.25-14.7 18.15-5.64 6.93-11.23 13.99-16.56 20.65 2.7-1.28 6.31-2.28 10-3.44 4.05-1.28 13.18-5.12 14.39.63.46 2.22-.66 4.95-1.88 6.57-3.96 5.23-16.18 8.94-24.07 10.32.21 1.63 2.03 2.57 1.87 5.95-.13 2.59-2.17 5.4-4.06 7.82-1.22 1.55-5.07 5.35-4.07 7.82 1.23 3.05 7.44-1.01 9.38-2.19 14.1-8.56 24.7-22.38 36.9-32.54 2.2-1.84 4.5-4.02 8.12-5.95 4.35-2.3 12.66-4.39 12.51 2.5 2.02-.14 2.6-3.63 5.32-4.37 2.44-.67 5.12.48 8.44 0 1.29.46-.7 1.85-1.25 2.5-7.71 9.16-15.95 18.73-23.45 28.79a44.83 44.83 0 0 0-3.75 5.63c-1 1.86-2.7 4.66-.63 6.88 5.86-.93 10.22-4.96 14.07-8.45 11.68-10.55 21.35-23.3 31.9-35.35h8.12c1.18.29-.61 1.39-1.25 2.19-.84 1.05-1.43 2.06-2.19 2.81-.06.26-.31.31-.31.63h-.31zM61.35 24.23c-3.82 4.5-7.13 15.22-.32 18.77 5.37 2.79 12.77-1.83 15.95-5 6.07-6.08 10.27-16.55 10.32-27.23h-.63c-7.96 2.17-19.57 6.65-25.32 13.46zm89.42 30.35c-3.57 1.82-7.22 5.06-10.32 8.45-6.13 6.7-11.44 13.67-16.88 20.64-2.53 3.25-7.06 7.46-5.94 11.9 5.36.6 9.56-2.38 12.82-5.32 1.84-1.68 8.23-7.7 8.75-10.02.29-1.25-.52-2.86-.31-4.06.6-3.5 4.54-6.75 8.44-6.58 2.35-4.76 6.79-9.03 6.25-15.64-1.4-.36-2.33.38-2.81.63zm164.46.3c-7.45 3.6-14.1 9.22-21.26 16.9-2.73 2.93-6.25 6.72-8.75 10.33-2 2.88-6.43 12.16-1.57 13.14 1.84.37 4.62-2.38 5.94-3.44a79.94 79.94 0 0 0 5-4.38 168.6 168.6 0 0 0 18.14-20.02c2.64-3.44 6.6-7.45 5.32-12.52a4.13 4.13 0 0 0-2.82 0zm-224.8 2.2c1.54.93 5.57.3 7.81 0-1.44-1.23-7.18-3.6-7.81 0zm169.46.31c-2.91 1.5-6.41 5.21-9.07 8.14A324.81 324.81 0 0 0 235.2 84.3c-2.61 3.35-5.82 7.35-4.38 11.58 4.97.78 8.82-3.42 11.88-6.26a150.2 150.2 0 0 0 17.83-19.71c2.76-3.62 6.14-7.7 6.25-12.83-2.06-1.58-4.62-.85-6.88.31zm-43.46 2.82c-5.28 2.55-11.19 4.5-12.2 10.01 4.96 1.63 10.49-1.05 14.7-2.81 4.24-1.78 9.73-3.65 9.7-9.4-3.7-1.82-8.04.19-12.2 2.2zM421.54 60.2c3.04-1.58 6.45-4.5 10.94-6.56 6.03-2.78 15.82-4 13.45 6.57-1.37 6.08-6.75 10.9-11.57 15.33-4.76 4.37-10.47 8.66-12.82 13.77-.88 1.91-1.45 4.34-.63 6.57 3.64.37 7-1.9 9.7-3.76 7.97-5.5 15.31-12.51 22.2-19.4 4.54-4.54 9.08-9.42 14.38-13.45 5.17-3.93 11.29-8.23 19.38-8.45 6.62 4.27-2.25 14.18-5.62 17.2a31.77 31.77 0 0 1-20.33 8.15c-3.43 3.07-5.28 7.97-7.19 13.45-1.2 3.44-3.17 7.68 2.5 7.82.8.02 4.3-.93 5.32-1.25a73.5 73.5 0 0 0 9.06-4.38c14.34-8.77 22.07-21.77 33.46-33.17 2.15-2.15 4.4-5.1 7.19-5.94 10.27-3.09 9.3 9 4.38 14.08 2.8-1.81 5.93-4.88 9.38-7.82 3.2-2.73 6.56-6.2 10.32-7.2 3.16-.83 8.07-.43 9.06 1.57 1.95 3.9-3.17 9.85-5 12.2-5.76 7.41-11.35 11.49-16.57 19.08-1.1 1.61-2.41 3.5-3.13 5.64-.62 1.86-1.85 4.73.32 6.57 3.79-.09 7.2-2.55 10-4.7 7.01-5.38 13.66-12 20.01-18.46 1.14-1.16 2.27-3.36 4.38-1.88 1.03-.22.48.63 0 .63a209.93 209.93 0 0 1-21.89 20.34c-2.6 2.06-5.3 4.43-8.13 5.63-6.22 2.64-12.25-1.24-10.63-9.07.76-3.65 3.13-6.88 5.63-10.02 2.29-2.87 4.72-5.88 7.19-8.13 5.56-5.06 12.05-9.74 13.45-17.2-6.43-.5-10.72 4.69-14.7 8.13-12.34 10.64-23.43 23.23-34.08 35.67h-7.82c-1.3-.45.7-1.84 1.25-2.5 4.85-5.72 10.59-11.77 15.64-17.84 2.88-3.46 5.93-7.02 8.75-10.64 2.72-3.48 6.37-7.05 6.88-11.58-3.44-1.86-6.14 1.32-8.13 3.45-10.11 10.8-19.03 23.4-31.58 32.54-5.1 3.7-11.06 7.1-17.5 7.82-2.44.27-5.34.4-7.2-.32-4.66-1.77-5.58-11.32-3.13-16.9-3.75 2.81-7.89 7.06-12.81 10.65-3.15 2.29-11.59 8.7-17.2 5.32-2.45-1.48-2.39-4.89-2.19-7.83.96-14.3 16.57-19.84 23.45-28.16 1.47-1.77 3.14-4.48 2.81-6.88-3.08-2.17-6.58-.02-9.06 1.25-7.47 3.84-14 10.25-19.7 15.96-7.98 7.99-15 17.52-21.89 25.66h-7.81c-1.13-.58.61-2 1.25-2.82.8-1.04 1.9-1.86 2.19-2.82-4.26 3.32-10.04 7.66-17.51 7.51-7-.14-11.49-5.75-9.38-14.39 2.15-8.81 8.49-16.26 15.63-22.53a63.27 63.27 0 0 1 11.26-7.82c4.53-2.4 9.85-4.7 14.7-3.13 1.23 2 1.34 5.07.93 7.51-.86 5.1-5.35 10.92-10.94 9.7-1.8-1.86-1.6-5.88-.63-7.5 1.96-3.3 10.04-1.72 9.07-7.2-2.25-2.02-5.16-.19-6.88.93-5.42 3.53-9.6 9.32-13.76 14.4-2.56 3.12-5.53 6.4-8.44 10.63-2.5 3.65-9.15 14.79-.62 15.96 4.88.68 10.67-2.8 14.07-5.32 10.78-7.97 19.27-20.85 27.51-30.66 12.31-14.65 24.92-29.35 35.65-41.93h7.81c1.4.41-.8 1.93-1.25 2.5-7.24 9.24-15.6 18.94-23.45 28.17-3.1 3.65-5.81 7.47-8.75 10.63-.06.26-.32.32-.32.63h-.31zm40.65 13.77c4.27-.82 8.14-3.38 11.56-5.94 3.31-2.48 7.08-5.5 9.38-8.45 1.34-1.7 2.83-4.33 2.2-6.88-11 3.81-16.68 12.93-23.14 21.27z"/>
			<path d="M276.15 35.18a6.15 6.15 0 0 1-9.07 7.2c-2.51-5.3 4.5-10.94 9.07-7.2zM286.15 34.86c7.44-1.5 5.09 7.94.63 9.08-8.15 2.07-6.1-7.97-.63-9.08z"/>
			<path fill-rule="nonzero" d="M347.75 58.02c-.25.06-.31.31-.63.31 3.36-2.34 13.64-9.94 18.76-2.19 1.26 6.23-2.58 12.15-5.62 16.58a88.53 88.53 0 0 1-17.82 19.09c-3.5 2.73-8.73 5.44-12.51 5.94-7.09.94-9.57-2.84-7.5-9.38-2.6 2.05-4.35 5.07-6.57 7.82-6.48 8-13.5 16.79-20.32 24.72h-8.76c-1.23-.19.57-1.38.94-1.88 8.02-10.63 17.52-21.72 26.26-32.23 9.52-11.43 19.1-23.04 28.45-34.1h9.38c-.83 2.29-3.01 3.23-4.06 5.32zm10.32-2.82c-4.9 1.51-9.2 4.7-13.45 8.14a77.26 77.26 0 0 0-16.88 18.77c-2.31 3.7-5.6 8.93-2.19 12.83 4.76-.63 8.26-4.19 11.57-7.2 6.93-6.3 12.68-12.1 18.45-19.4 2.68-3.4 6.64-7.56 5.63-12.83a4.56 4.56 0 0 0-3.13-.3z"/>
		</g>
	</symbol>
	<symbol id="stage" viewBox="0 0 498 378">
		<g fill="#fff" fill-rule="evenodd">
			<path d="M255.4 101.1C254.8 89 247.3 80 229 74.4c-18.3-6.1-43.6-8.4-65.9-8.4C132.7 66 83 69.7 83 88.5c4.1 23.9 107.5 29 210 42.1 102.5 13.1 203.9 35.1 203.9 96.5v1.4c-22.6-49.8-133-62.4-243.3-72.9C130.8 143.9 7 135 7 81.2 7 25.9 123.7 10 205.8 10 339.7 10 433 41.3 438.1 98.4c0 0-90.1 20.3-182.7 2.7zM13.1 286.8c-1.5 32.4 21.6 46.5 53 46.5 47.1 0 50.8-28.8 50.8-37.9 0-21.8-15.6-29.9-34.4-35l-32.4-8c-10.8-2.6-20.1-7.8-20.1-20.3 0-19.7 16-26.4 33.3-26.4 18.8 0 35.5 10.2 36.3 30.5h12.6c.2-27.2-22.9-41.3-49.1-41.3-37.4 0-45.7 24.4-45.7 37.4 0 20.6 14.3 28.1 29.9 32l29.6 7.3c12.3 3 27.3 8.9 27.3 24 0 19.3-21.2 27-35.1 27-24.2 0-43.9-8.4-43.3-35.7H13.1v-.1zM154.8 205.7h-11.7v28.8h-16.7v9.9h16.7V310c-.2 16.4 5.2 21.6 20.8 21.6 3.5 0 6.9-.4 10.4-.4v-10c-3.32.4-6.66.6-10 .6-8.4-.6-9.5-5-9.5-12.6v-64.7h19.5v-9.9h-19.5v-28.9z"/>
			<path fill-rule="nonzero" d="M254.1 293.3c.2 18.8-15.6 30.1-33.5 30.1-11 0-21.4-7.3-21.4-19 0-18.8 24.7-18.6 44.6-22.1 3.2-.6 8.4-1.5 9.9-4.3h.4v15.3zm-50.8-29.4c.4-15.6 11.2-22.3 25.7-22.3 13.8 0 25.1 3.9 25.1 19.7 0 10.6-5.4 11.9-15.1 13-25.3 3-51.5 3.9-51.5 30.9 0 19.3 14.5 28.1 32.2 28.1 18.4 0 26.8-7.1 35-19.5h.4c0 10 1.9 16.7 13.8 16.7 2.55.04 5.1-.2 7.6-.7v-9.9c-1.18.46-2.43.7-3.7.7-4.7 0-6.9-2.6-6.9-7.1v-51c0-25.7-18.4-30.9-35.3-30.9-21.9 0-37.8 9.7-38.9 32.2h11.6v.1zM329.2 319.5c-21.6 0-31.6-18.8-31.6-38.1 0-19.9 9.3-39.8 31.6-39.8 22.1 0 30.9 21 30.9 39.8 0 19.5-10.6 38.1-30.9 38.1zm42.6-85h-11.7v16.6h-.4c-4.6-10.6-16.6-19.3-30.5-19.3-27.7 0-43.3 21.9-43.3 48.4 0 27.3 12.6 49.3 43.3 49.3a33.24 33.24 0 0 0 30.5-19.7h.4v13c0 23.4-9.3 36.3-30.9 36.3-13 0-25.5-5-28.1-19.2h-11.7c1.7 20.5 20.6 29 39.8 29 31.4 0 42.4-17.5 42.6-46.1v-88.3zM476.3 285.7c.9-27-11.3-53.9-42.2-53.9-30.5 0-43.3 25.5-43.3 50.8 0 27.3 12.8 50.8 43.3 50.8 24.2 0 36.8-12.6 41.8-34.4h-11.7c-3.7 14.5-13 24.5-30.1 24.5-22.5 0-31.4-20.6-31.6-37.8h73.8zm-73.9-9.9c1.9-17.5 12.5-34.2 31.6-34.2s29.9 16.5 30.5 34.2h-62.1z"/>
		</g>
	</symbol>
	<symbol id="studienkreis" viewBox="0 0 712 211">
		<g fill="#fff" fill-rule="evenodd">
			<path d="M49.69 101.51c15.77 3.8 19.77 13.72 19.77 23.09 0 14.5-10.3 25.31-31.12 25.31-21.86 0-31.64-11.6-31.64-20.3 0-4.45 3.05-7.58 7.26-7.58 9.35 0 6.93 14.5 24.38 14.5 8.93 0 13.88-5.24 13.88-10.6 0-3.23-1.48-6.8-7.36-8.36l-19.45-5.24c-15.66-4.24-18.5-13.38-18.5-21.97 0-17.84 15.56-24.54 30.17-24.54 13.46 0 29.32 8.03 29.32 18.74 0 4.57-3.67 7.25-7.88 7.25-7.98 0-6.51-11.94-22.6-11.94-7.98 0-12.4 3.9-12.4 9.49 0 5.57 6.3 7.36 11.77 8.7l14.4 3.45M77.07 100.4h-2.63c-4.31 0-6.1-1.79-6.1-5.36 0-3.57 1.79-5.35 6.1-5.35h2.63v-9.92c0-5.36 3.04-8.15 7.67-8.15 4.62 0 7.67 2.8 7.67 8.15v9.92h4.63c4.51 0 6.93 1.45 6.93 5.35 0 3.9-2.42 5.36-6.93 5.36H92.4v32.56c0 2.46 1.26 3.79 4 3.79h2.2c3.37 0 5.36 2 5.36 5.47 0 4.68-3.78 7.24-11.14 7.24-11.14 0-15.76-4.9-15.76-14.5V100.4M160.42 141.33c0 4.9-2.1 8.13-6.93 8.13-4.84 0-6.94-3.23-6.94-8.13v-2.12h-.22c-4.3 6.02-9.88 10.25-18.6 10.25-9.25 0-19.34-4.9-19.34-21.4V96.37c0-4.35 1.68-8.14 7.67-8.14 6 0 7.68 3.8 7.68 8.14v28.44c0 6.58 3.05 11.26 9.67 11.26 5.36 0 11.67-4.68 11.67-12.82V96.38c0-4.35 1.68-8.14 7.66-8.14 6 0 7.68 3.8 7.68 8.14v44.95"/>
			<path fill-rule="nonzero" d="M219.48 141.77c0 5.02-2.22 7.7-6.94 7.7-4.52 0-6.94-2.68-6.94-7.7v-2.56h-.2c-2.53 6.91-8.74 10.25-16.2 10.25-12.82 0-24.07-9.92-24.07-31 0-15.6 7.46-30.22 23.65-30.22 6.84 0 12.09 3.01 15.14 8.25h.2V74.41c0-5.35 3.05-8.14 7.68-8.14 4.62 0 7.68 2.8 7.68 8.14v67.36zm-26.81-5.02c8.93 0 12.3-8.48 12.3-17.73 0-8.37-2.94-18.18-12.3-18.07-9.77 0-12.2 10.48-12.2 18.07 0 9.6 4 17.51 12.2 17.73zM235.14 65.82c4.4 0 7.98 3.8 7.98 8.48 0 4.69-3.57 8.48-7.98 8.48-4.42 0-8-3.8-8-8.48 0-4.69 3.58-8.48 8-8.48m-7.68 30.56c0-4.35 1.69-8.14 7.68-8.14 6 0 7.67 3.8 7.67 8.14v44.94c0 4.35-1.68 8.14-7.67 8.14-6 0-7.68-3.79-7.68-8.14V96.38M262.7 121.92c0 8.59 5.26 14.83 14.2 14.83 11.56 0 11.56-8.03 17.76-8.03 3.68 0 6.31 3.35 6.31 6.36 0 9.81-14.82 14.38-24.07 14.38-21.44 0-29.54-15.39-29.54-29.55 0-18.96 10.83-31.67 29.01-31.67 17.66 0 27.75 13.27 27.75 26.65 0 5.58-1.57 7.03-6.73 7.03h-34.68zm26.92-9.37c-.84-7.47-6.1-12.94-12.93-12.94-7.67 0-12.3 5.02-13.98 12.94h26.9z"/>
			<path d="M308.5 96.38c0-4.9 2.1-8.14 6.93-8.14 4.84 0 6.94 3.23 6.94 8.14v2.12h.21c4.3-6.02 9.88-10.26 18.6-10.26 9.26 0 19.35 4.9 19.35 21.41v31.67c0 4.35-1.68 8.14-7.68 8.14-5.99 0-7.67-3.79-7.67-8.14V112.9c0-6.58-3.05-11.27-9.67-11.27-5.36 0-11.67 4.69-11.67 12.82v26.88c0 4.35-1.68 8.14-7.67 8.14s-7.67-3.79-7.67-8.14V96.38M367.6 74.41c0-5.35 3.06-8.14 7.68-8.14 4.63 0 7.68 2.8 7.68 8.14v37.02l17.02-20.06c1.58-1.8 3.58-3.13 5.9-3.13 3.46 0 7.24 3.23 7.24 7.36 0 2.9-.94 3.79-2.3 5.36l-11.36 12.6 15.98 22.75a9.23 9.23 0 0 1 1.58 5.24c0 4.12-3.16 7.91-7.26 7.91-3.78 0-5.78-2-6.93-3.79l-14.51-21.74-5.36 5.02v12.38c0 5.34-3.05 8.13-7.68 8.13-4.62 0-7.67-2.79-7.67-8.13V74.4M421.85 95.82c0-4.9 3.05-7.58 6.94-7.58 3.89 0 6.93 2.68 6.93 7.58v6.25h.22c1.78-6.8 5.25-13.83 12.72-13.83 4.83 0 8.4 3.35 8.4 7.92 0 6.02-3.78 8.14-7.56 8.14h-2.74c-6.2 0-9.56 4.57-9.56 18.07v18.96c0 4.34-1.68 8.13-7.67 8.13-6 0-7.68-3.79-7.68-8.13v-45.5"/>
			<path fill-rule="nonzero" d="M470.24 121.92c0 8.59 5.25 14.83 14.18 14.83 11.57 0 11.57-8.03 17.77-8.03 3.68 0 6.3 3.35 6.3 6.36 0 9.81-14.81 14.38-24.07 14.38-21.43 0-29.53-15.39-29.53-29.55 0-18.96 10.82-31.67 29.01-31.67 17.66 0 27.76 13.27 27.76 26.65 0 5.58-1.58 7.03-6.74 7.03h-34.68zm26.9-9.37c-.84-7.47-6.1-12.94-12.93-12.94-7.67 0-12.3 5.02-13.97 12.94h26.9zM523.83 65.82c4.4 0 7.98 3.8 7.98 8.48 0 4.69-3.57 8.48-7.98 8.48-4.43 0-8-3.8-8-8.48 0-4.69 3.57-8.48 8-8.48m-7.68 30.56c0-4.35 1.68-8.14 7.68-8.14 5.98 0 7.67 3.8 7.67 8.14v44.94c0 4.35-1.69 8.14-7.67 8.14-6 0-7.68-3.79-7.68-8.14V96.38"/>
			<path d="M559.8 88.24c11.66 0 23.43 4.9 23.43 12.38 0 3.8-2.41 7.14-6.41 7.14-5.99 0-6.2-7.48-15.87-7.48-5.36 0-8.83 1.56-8.83 5.02 0 3.8 3.47 4.69 8.2 5.8l6.41 1.56c8.73 2.13 19.13 6.02 19.13 17.4 0 13.27-12.09 19.4-23.65 19.4-13.87 0-25.44-6.57-25.44-14.6 0-3.57 1.9-6.8 6.2-6.8 6.63 0 7.26 10.03 18.61 10.03 5.46 0 8.93-2.57 8.93-5.91 0-4.13-3.35-4.8-8.82-6.24l-9.04-2.34c-8.94-2.35-15.88-6.25-15.88-17.18 0-13.27 12.41-18.18 23.02-18.18"/>
			<path d="M605.87 173.16a6.8 6.8 0 0 1-4.32-1.54 6.95 6.95 0 0 1-1-9.72c5.66-7.01 14.68-11.46 23.4-15.76 5.49-2.72 10.67-5.27 14.3-8.13 13.58-10.72 19.51-27.77 15.88-45.62-4.62-22.72-25.81-38.54-51.57-38.54h-.27c-27.27.12-43.07 21.04-43.23 21.26a6.82 6.82 0 0 1-9.6 1.4 6.94 6.94 0 0 1-1.38-9.67c.8-1.08 20.12-26.65 54.15-26.8h.33c32.35 0 59.04 20.34 65 49.58 4.63 22.75-3.37 45.45-20.87 59.26-4.74 3.75-10.83 6.76-16.72 9.66-7.38 3.65-15.02 7.42-18.78 12.08a6.83 6.83 0 0 1-5.32 2.54M686.57 106.6c-3.6 0-6.61-2.82-6.83-6.48a6.89 6.89 0 0 1 6.43-7.31l17.75-1.07a6.87 6.87 0 0 1 7.26 6.48 6.9 6.9 0 0 1-6.43 7.3l-17.76 1.08h-.42M581.91 199.2c-.75 0-1.51-.15-2.24-.45l-30.58-12.42a6.07 6.07 0 0 1-3.32-7.87 5.99 5.99 0 0 1 7.81-3.35l30.58 12.43a6.06 6.06 0 0 1-2.25 11.65M592.29 186.8c-.86 0-1.72-.17-2.57-.5l-39.32-16a6.93 6.93 0 0 1-3.8-8.98 6.84 6.84 0 0 1 8.92-3.83l39.33 16a6.93 6.93 0 0 1-2.56 13.3M571.47 210.67c-.7 0-1.4-.14-2.08-.41l-20.8-8.44a5.63 5.63 0 0 1-3.1-7.3 5.56 5.56 0 0 1 7.25-3.1l20.81 8.42a5.63 5.63 0 0 1-2.08 10.83M623.72 31.34a6.9 6.9 0 0 1-6.64-8.63l4.44-17.36a6.84 6.84 0 0 1 8.34-4.97 6.92 6.92 0 0 1 4.93 8.42l-4.44 17.36a6.86 6.86 0 0 1-6.63 5.18M667.95 58.3a6.8 6.8 0 0 1-5.26-2.47 6.94 6.94 0 0 1 .87-9.73L677.2 34.6a6.82 6.82 0 0 1 9.65.86 6.94 6.94 0 0 1-.86 9.73l-13.64 11.5a6.78 6.78 0 0 1-4.4 1.62M571.93 34.76a6.85 6.85 0 0 1-6.36-4.34l-6.64-16.63a6.94 6.94 0 0 1 3.8-8.99c3.51-1.41 7.51.3 8.92 3.84l6.64 16.63a6.92 6.92 0 0 1-6.36 9.49"/>
			<path fill-rule="nonzero" d="M174.24 170.71c0-3.92 2.03-5.15 5.12-5.15h10.68c9.56 0 18.3 4.19 18.3 19.36 0 12.26-6.77 19.37-18.46 19.37h-10.52c-3.1 0-5.12-1.24-5.12-5.17v-28.4zm8.75 26.47h7.37c7 0 9.24-6.29 9.24-12.26 0-7.64-2.9-12.27-9.3-12.27H183v24.53zM218.1 164.63a4.07 4.07 0 0 1 4.07 4.1c0 2.26-1.82 4.09-4.06 4.09a4.07 4.07 0 0 1-4.06-4.1c0-2.26 1.82-4.09 4.06-4.09m-3.9 14.75c0-2.1.86-3.93 3.9-3.93s3.9 1.83 3.9 3.93v21.68c0 2.1-.86 3.93-3.9 3.93s-3.9-1.83-3.9-3.93v-21.68M235.24 191.7c0 4.14 2.67 7.15 7.2 7.15 5.88 0 5.88-3.87 9.03-3.87 1.87 0 3.2 1.61 3.2 3.07 0 4.73-7.53 6.94-12.22 6.94-10.9 0-15-7.43-15-14.26 0-9.14 5.5-15.28 14.73-15.28 8.97 0 14.1 6.4 14.1 12.86 0 2.69-.8 3.39-3.42 3.39h-17.62zm13.67-4.52c-.43-3.6-3.1-6.24-6.57-6.24-3.9 0-6.24 2.42-7.1 6.24h13.67z"/>
			<path d="M278.41 170.01c0-3.65 1.77-5.16 5.5-5.16 1.82 0 3.42.7 4.38 2.31l15.32 24.91h.1V169.1c0-2.85 1.61-4.25 4.23-4.25 2.61 0 4.21 1.4 4.21 4.25v30.4c0 3.5-1.5 5.49-5.17 5.49-2.78 0-3.69-.6-4.81-2.37l-15.21-24.21h-.1v22.33c0 2.85-1.61 4.25-4.23 4.25-2.61 0-4.22-1.4-4.22-4.25V170"/>
			<path fill-rule="nonzero" d="M345.03 196.7c0 3.28.8 4.04.8 5.27 0 1.78-1.66 3.02-3.52 3.02-3.37 0-4.49-2.15-4.6-4.58-3.04 3.4-6.56 4.58-10.68 4.58-4.43 0-8.8-3.07-8.8-8.02 0-6.51 4.91-8.34 10.9-9.04l4.74-.54c1.87-.21 3.36-.64 3.36-2.9s-2.29-3.23-4.91-3.23c-5.76 0-5.92 4.3-9.02 4.3-1.97 0-3.31-1.4-3.31-3 0-3.13 4.38-7.1 12.39-7.1 7.47 0 12.65 2.4 12.65 8.06v13.18zm-7.8-5.65c-.85.8-2.45 1.08-3.36 1.24l-2.83.43c-3.26.48-5.02 1.5-5.02 3.87 0 1.78 1.66 3.23 4.33 3.23 4.27 0 6.88-2.8 6.88-5.7v-3.07z"/>
			<path d="M364.87 175.45c6.52 0 11.38 3.71 11.38 7.37 0 2.26-1.66 3.4-3.63 3.4-3.69 0-2.36-4.63-7.96-4.63-3.04 0-6.61 2.1-6.61 9.2 0 4.9 2.29 8.06 6.56 8.06 5.44 0 4.27-5.06 8.38-5.06 1.98 0 3.26 1.46 3.26 3.02 0 3.44-3.85 8.18-11.85 8.18-9.61 0-14.15-5.98-14.15-14.2 0-9.04 5.07-15.34 14.62-15.34M380.4 168.78c0-2.58 1.55-3.93 3.9-3.93 2.35 0 3.9 1.35 3.9 3.93v10.81h.1a10.46 10.46 0 0 1 8.7-4.14c4.7 0 9.83 2.37 9.83 10.33v15.28c0 2.1-.86 3.93-3.9 3.93s-3.9-1.83-3.9-3.93v-13.72c0-3.18-1.54-5.43-4.9-5.43a6.08 6.08 0 0 0-5.93 6.18v12.97c0 2.1-.86 3.93-3.9 3.93s-3.9-1.83-3.9-3.93v-32.28M413.01 168.78c0-2.58 1.55-3.93 3.9-3.93 2.35 0 3.9 1.35 3.9 3.93v10.81h.1a10.46 10.46 0 0 1 8.7-4.14c4.7 0 9.82 2.37 9.82 10.33v15.28c0 2.1-.84 3.93-3.89 3.93-3.05 0-3.9-1.83-3.9-3.93v-13.72c0-3.18-1.54-5.43-4.9-5.43a6.08 6.08 0 0 0-5.93 6.18v12.97c0 2.1-.86 3.93-3.9 3.93s-3.9-1.83-3.9-3.93v-32.28"/>
			<path fill-rule="nonzero" d="M449.94 164.63a4.07 4.07 0 0 1 4.06 4.1c0 2.26-1.81 4.09-4.06 4.09a4.07 4.07 0 0 1-4.05-4.1c0-2.26 1.81-4.09 4.05-4.09m-3.9 14.75c0-2.1.86-3.93 3.9-3.93 3.05 0 3.9 1.83 3.9 3.93v21.68c0 2.1-.85 3.93-3.9 3.93-3.04 0-3.9-1.83-3.9-3.93v-21.68"/>
			<path d="M460.88 168.78c0-2.58 1.55-3.93 3.9-3.93 2.35 0 3.9 1.35 3.9 3.93v32.28c0 2.58-1.55 3.93-3.9 3.93-2.35 0-3.9-1.35-3.9-3.93v-32.28M477.75 181.31h-1.76c-2.19 0-3.1-.86-3.1-2.58 0-1.71.91-2.58 3.1-2.58h1.76v-3.93c0-4.95 4.06-7.59 8.6-7.59 2.82 0 5.12 1.14 5.12 3.78 0 1.44-1.13 2.69-2.5 2.69-.6 0-1.13-.17-1.72-.17-1.12 0-1.7.75-1.7 1.83v3.39h2.4c2.29 0 3.52.7 3.52 2.58 0 1.88-1.23 2.58-3.52 2.58h-2.4v19.75c0 2.58-1.56 3.93-3.9 3.93-2.35 0-3.9-1.35-3.9-3.93v-19.75"/>
			<path fill-rule="nonzero" d="M501.66 191.7c0 4.14 2.67 7.15 7.2 7.15 5.88 0 5.88-3.87 9.03-3.87 1.86 0 3.2 1.61 3.2 3.07 0 4.73-7.53 6.94-12.22 6.94-10.9 0-15-7.43-15-14.26 0-9.14 5.5-15.28 14.73-15.28 8.97 0 14.1 6.4 14.1 12.86 0 2.69-.8 3.39-3.42 3.39h-17.62zm13.66-4.52c-.42-3.6-3.09-6.24-6.56-6.24-3.9 0-6.24 2.42-7.1 6.24h13.66z"/>
		</g>
	</symbol>
</svg>
