<svg xmlns="http://www.w3.org/2000/svg" xmlns:xlink="http://www.w3.org/1999/xlink">
	<symbol id="logo" viewBox="0 0 375 289">
		<g fill="none" fill-rule="evenodd">
			<path fill="#5B2313" d="M155.84 237.37h219.34V-.74H155.84z"/>
			<path fill="#AA4223" d="M31.06 60.26c11.23-.13 20.44-8.87 20.44-19.55 0-10.67-9.2-19.41-20.44-19.41H7.63v38.96h23.43zM1 18.09C1 16.4 2.49 15 4.25 15h26.8C45.96 15 58 26.57 58 40.71 58 54.86 45.95 66.3 31.06 66.3l-23.43.26v35.35c0 1.68-1.49 3.09-3.38 3.09-1.76 0-3.25-1.41-3.25-3.09V18.1zM108.84 21.2H85.33v38.95h24.05c11-.25 19.98-8.9 19.98-19.48 0-10.83-9.24-19.47-20.52-19.47zm19.02 63.6c0-6.59-3.53-10.72-7.74-13.68a31.3 31.3 0 0 0-11.01-4.52c-.4-.13-.55-.25-.68-.25h-23.1v35.73c0 1.67-1.5 3.1-3.4 3.1-1.77 0-3.26-1.43-3.26-3.1v-84.1c0-1.56 1.36-2.98 2.99-3.1h27.18c14.95 0 27.04 11.47 27.04 25.8 0 10.31-6.39 19.22-15.63 23.34.41.26.82.39 1.36.65 6.25 3.35 12.77 9.93 12.77 20.12 0 5.29.55 8.52 1.23 10.45.54 1.55 1.22 2.07 1.36 2.2 1.5-.13 3.12.64 3.67 2.06.4 1.67-.41 3.48-2.18 4.13-.13 0-.81.12-1.63.12h-.27c-1.77 0-4.62-1.29-6.12-4.12-1.63-2.97-2.58-7.23-2.58-14.84z"/>
			<path fill="#DF542A" d="M214.7 98.65c20.82 0 38.4-17.5 38.54-39.65-.14-22.42-17.72-39.52-38.54-39.52-21.5 0-39.08 17.1-39.08 39.52 0 22.16 17.58 39.65 39.08 39.65zm0-85.65C240 13 259.86 33.6 260 59c-.14 25.4-20.01 46-45.3 46-25.55 0-45.56-20.6-45.7-46 .14-25.4 20.15-46 45.7-46zM292.65 27.92v73.98c0 1.68-1.49 3.1-3.25 3.1a3.22 3.22 0 0 1-3.25-3.1V19.01c-.4-1.29 0-2.58 1.22-3.48 1.49-.9 3.65-.65 4.6.77l57.4 75.92v-73.6c0-1.67 1.49-3.1 3.24-3.1 1.9 0 3.39 1.43 3.39 3.1v83.28c0 1.68-1.49 3.1-3.39 3.1a3.2 3.2 0 0 1-2.57-1.16c-.13-.13-.4-.26-.54-.52l-56.85-75.4M184.34 194.3h38.44l-19.15-48.55-19.3 48.55zm40.88 6.33H181.9l-8.42 21.3a3.35 3.35 0 0 1-3.12 2.07c-.27 0-.82-.13-1.23-.13-1.63-.64-2.58-2.58-1.9-4.13l33.01-83.8a3.65 3.65 0 0 1 3.26-1.94c1.5 0 2.85.77 3.26 1.94l33 83.8a3.18 3.18 0 0 1-1.76 4.13c-.54 0-.81.13-1.22.13a3.49 3.49 0 0 1-3.12-2.07l-8.43-21.3zM262 137.08c0-1.67 1.57-3.08 3.43-3.08 2 0 3.57 1.41 3.57 3.08v83.83c0 1.68-1.57 3.09-3.57 3.09-1.86 0-3.43-1.41-3.43-3.09v-83.83M330.6 139.8h-23.5v38.96h24.05c11-.26 19.97-8.9 19.97-19.48 0-10.83-9.24-19.48-20.52-19.48zm19.03 63.6c0-6.58-3.53-10.7-7.75-13.68a31.3 31.3 0 0 0-11-4.5c-.41-.14-.55-.27-.68-.27h-23.1v35.74c0 1.67-1.5 3.1-3.4 3.1-1.77 0-3.26-1.43-3.26-3.1v-84.11c0-1.55 1.36-2.97 2.99-3.1h27.17c14.95 0 27.05 11.48 27.05 25.8 0 10.32-6.39 19.22-15.63 23.35.4.26.81.39 1.36.65 6.25 3.35 12.77 9.93 12.77 20.12 0 5.29.55 8.51 1.23 10.45.54 1.55 1.22 2.06 1.36 2.2 1.49-.14 3.12.64 3.66 2.05.41 1.68-.4 3.49-2.17 4.13-.13 0-.81.13-1.63.13h-.27c-1.77 0-4.62-1.29-6.12-4.13-1.63-2.96-2.58-7.22-2.58-14.83zM.06 237.05H20.7v-14.27H.06zM117 237h21v-14h-21zM23 237h21v-14H23zM47 237h21v-14H47zM70 237h21v-14H70zM93.97 237.05h20.66v-14.27H93.97zM.06 219.72h20.6v-14.26H.06zM117 220h21v-14h-21zM23 220h21v-14H23zM47 220h21v-14H47zM70 220h21v-14H70zM93.93 219.72h20.67v-14.26H93.93z"/>
			<path fill="#AA4223" d="M.06 202.47h20.6V188.2H.06zM117 202h21v-14h-21zM47 202h21v-14H47zM70 202h21v-14H70zM94 202h21v-14H94zM47 185h21v-14H47zM70 185h21v-14H70zM94 185h21v-14H94z"/>
			<path fill="#5B2313" d="M47 168h21v-14H47zM94 168h21v-14H94zM47 150h21v-14H47z"/>
			<path fill="#DF542A" d="M23 272h21v-14H23zM23 254h21v-14H23z"/>
			<path fill="#AA4223" d="M23 289h21v-14H23z"/>
			<g>
				<path fill="#5B2313" d="M80.29 257.48l-8 11.16a.83.83 0 0 1-.72.4h-.07c-.32 0-.57-.12-.75-.4l-8-11.12v20.62a.88.88 0 0 1-1.75 0V254.9c0-.29.14-.54.36-.68 0-.04.03-.04.07-.07a.9.9 0 0 1 1.21.21l8.9 12.38 8.85-12.38c.25-.4.82-.46 1.22-.21.1.1.18.18.25.28.07.15.14.33.14.47v23.24c0 .47-.4.86-.86.86-.5 0-.85-.4-.85-.86v-20.66M90.83 268.6h13.3a6.84 6.84 0 0 0-6.6-5.84c-3.3 0-6.06 2.43-6.7 5.84zM89 270.04c0-5 3.8-9.04 8.54-9.04 4.51 0 8.1 3.67 8.46 8.38v.14c0 .48-.4.81-.86.81H90.72c.18 3.93 3.2 6.9 6.82 6.9a6.58 6.58 0 0 0 5.66-3.26.82.82 0 0 1 1.15-.3c.4.3.54.81.29 1.25a8.33 8.33 0 0 1-7.1 4.08c-4.74 0-8.54-4.04-8.54-8.96zM112 262.51c0-.5.45-.85.98-.85.57 0 1.02.35 1.02.85v15.64c0 .46-.45.85-1.02.85-.53 0-.98-.39-.98-.85v-15.64zm0-5.66c0-.46.45-.85.98-.85.57 0 1.02.39 1.02.85v.81c0 .5-.45.92-1.02.92-.53 0-.98-.42-.98-.92v-.81zM134.31 268.33a5.43 5.43 0 0 0-5.31-5.56c-2.92 0-5.28 2.5-5.35 5.56v9.93a.84.84 0 0 1-.17.4.74.74 0 0 1-.64.34h-.2a.93.93 0 0 1-.57-.48c-.03-.04-.03-.07-.03-.1 0-.04-.04-.08-.04-.08v-16.46c0-.47.35-.88.84-.88.46 0 .81.4.81.88v1.73A6.86 6.86 0 0 1 129 261c3.87 0 7 3.31 7 7.33v9.79c0 .51-.39.88-.84.88a.85.85 0 0 1-.85-.88v-9.8"/>
				<path fill="#DF542A" d="M160.51 270.75h10l-4.98-13.49-5.02 13.49zm10.64 1.76h-11.27l-2.2 5.92a.87.87 0 0 1-.81.57c-.07 0-.21-.04-.32-.04-.42-.17-.67-.71-.5-1.14l8.6-23.28c.14-.32.5-.54.85-.54.39 0 .74.22.85.54l8.59 23.28a.9.9 0 0 1-.46 1.14c-.14 0-.21.04-.32.04a.9.9 0 0 1-.81-.57l-2.2-5.92zM179 261.88c0-.51.39-.88.84-.88.46 0 .84.37.84.88v9.79a5.44 5.44 0 0 0 5.27 5.57 5.48 5.48 0 0 0 5.33-5.57v-9.79c0-.51.42-.88.84-.88.5 0 .88.37.88.88v9.79a7.18 7.18 0 0 1-7.05 7.33c-3.86 0-6.95-3.3-6.95-7.33v-9.79M214.24 270.57V270a6.9 6.9 0 0 0-6.74-6.75c-3.7 0-6.74 3.14-6.74 7.04a6.87 6.87 0 0 0 6.74 6.96c3.62 0 6.6-2.96 6.74-6.68zm0 5.04a8.37 8.37 0 0 1-6.74 3.39 8.6 8.6 0 0 1-8.5-8.71 8.62 8.62 0 0 1 8.5-8.79 8.4 8.4 0 0 1 6.74 3.43v-10.07a.88.88 0 0 1 1.76 0v23.28a.88.88 0 0 1-1.76 0v-2.53zM224 262.51c0-.5.45-.85.98-.85.57 0 1.02.36 1.02.85v15.64c0 .46-.45.85-1.02.85-.53 0-.98-.39-.98-.85v-15.64zm0-5.66c0-.46.45-.85.98-.85.57 0 1.02.39 1.02.85v.81c0 .5-.45.92-1.02.92-.53 0-.98-.42-.98-.92v-.81zM241 277.24c3.45 0 6.35-3.24 6.35-7.24s-2.9-7.27-6.35-7.27c-3.45 0-6.35 3.27-6.35 7.27 0 4 2.9 7.24 6.35 7.24zm0-16.24c4.45 0 8 4.11 8 9s-3.55 9-8 9c-4.41 0-8-4.11-8-9s3.59-9 8-9z"/>
				<path fill="#AA4223" d="M254.19 275.25a.82.82 0 0 1 1.2-.1c1.2.91 3.12 2.09 5.31 2.09 1.35 0 2.51-.44 3.3-1.1.84-.6 1.3-1.4 1.3-2.2-.03-.85-.35-1.44-1.24-2.21-.74-.6-1.98-1.03-3.68-1.33l-.07-.03c-1.56-.3-2.94-.66-3.93-1.4a3.78 3.78 0 0 1-1.87-3.23 4.5 4.5 0 0 1 1.87-3.53 7.26 7.26 0 0 1 4.25-1.21c2.23 0 3.82 1.06 5.17 1.95.39.3.5.84.24 1.25a.83.83 0 0 1-1.16.25c-1.28-.88-2.55-1.8-4.25-1.8-1.42 0-2.55.4-3.3 1.03-.7.59-1.09 1.32-1.09 2.06 0 .73.32 1.25 1 1.8.77.55 1.94 1 3.53 1.25h.07c1.66.25 3.01.77 4.21 1.47a4.54 4.54 0 0 1 1.95 3.67c0 1.5-.81 2.72-1.98 3.64a6.9 6.9 0 0 1-4.32 1.43c-2.8-.04-4.99-1.4-6.4-2.57a.85.85 0 0 1-.11-1.18M272.83 268.6h13.3a6.84 6.84 0 0 0-6.6-5.84c-3.3 0-6.05 2.43-6.7 5.84zm-1.83 1.44c0-5 3.8-9.04 8.54-9.04 4.51 0 8.1 3.67 8.46 8.38v.14c0 .48-.4.81-.86.81h-14.42c.18 3.93 3.2 6.9 6.82 6.9a6.58 6.58 0 0 0 5.66-3.26.82.82 0 0 1 1.15-.3c.4.3.54.81.29 1.25a8.33 8.33 0 0 1-7.1 4.08c-4.74 0-8.54-4.04-8.54-8.96zM293 261.88c0-.51.4-.88.91-.88.44 0 .84.37.84.88v3.98c.07-.15.14-.3.25-.44 1.35-2.14 3.7-4.42 7.13-4.42.47 0 .87.37.87.88 0 .48-.4.89-.87.89-2.33 0-3.93 1.32-5.17 2.94a16.25 16.25 0 0 0-2.14 4.2c-.07.15-.07.22-.07.3v7.9c0 .52-.4.89-.84.89a.88.88 0 0 1-.91-.88v-16.24M314 278.86a1.1 1.1 0 0 1-.3-.38l-6.64-15.33a.84.84 0 0 1 .44-1.09c.43-.17.97.04 1.12.46l5.88 13.5 5.88-13.5c.14-.42.69-.63 1.12-.46.43.18.61.67.43 1.09l-6.6 15.18c-.04.15-.11.28-.22.43a.78.78 0 0 1-.58.24c-.1 0-.18 0-.29-.04-.03 0-.03 0-.07-.03-.07 0-.1-.04-.18-.07M328 262.51c0-.5.45-.85.98-.85.57 0 1.02.36 1.02.85v15.64c0 .46-.45.85-1.02.85-.53 0-.98-.39-.98-.85v-15.64zm0-5.66c0-.46.45-.85.98-.85.57 0 1.02.39 1.02.85v.81c0 .5-.45.92-1.02.92-.53 0-.98-.42-.98-.92v-.81zM337 269.96c0-5 4.03-8.96 9.07-8.96 2.09 0 4.07.73 5.62 1.98.35.26.43.81.1 1.22a.87.87 0 0 1-1.18.14 7.28 7.28 0 0 0-11.88 5.62 7.26 7.26 0 0 0 7.34 7.28c1.7 0 3.28-.6 4.54-1.58.4-.3.9-.19 1.18.14.33.4.25.96-.18 1.29a8.99 8.99 0 0 1-5.54 1.91 8.99 8.99 0 0 1-9.07-9.04M358.2 268.91h13.08a6.7 6.7 0 0 0-6.49-5.7 6.78 6.78 0 0 0-6.59 5.7zm-1.8 1.4c0-4.88 3.74-8.82 8.4-8.82 4.44 0 7.96 3.58 8.32 8.17v.15c0 .46-.4.79-.85.79H358.1c.17 3.84 3.13 6.74 6.7 6.74 2.29 0 4.4-1.22 5.57-3.2a.81.81 0 0 1 1.12-.28c.4.29.53.8.29 1.22a8.2 8.2 0 0 1-6.99 3.98c-4.65 0-8.39-3.94-8.39-8.75z"/>
			</g>
		</g>
	</symbol>
	<symbol id="microphone" viewBox="0 0 450 381" preserveAspectRatio="xMidYMin">
		<g fill="#0A0F2B" fill-rule="evenodd">
			<path d="M302.5 267c46.6 0 84.5-39.31 84.5-87.63V87.63C387 39.3 349.1 0 302.5 0S218 39.31 218 87.63v91.74c0 48.32 37.9 87.63 84.5 87.63zm0-24.65c-28.64 0-52.64-21.35-58.42-49.73h116.85c-5.8 28.38-29.79 49.73-58.43 49.73zm-59.77-62.98v-9.34h119.54v9.34l-.02.92h-119.5l-.02-.92zm0-21.67h119.54v-12.32H242.73v12.32zm29.63-124.43V78.4a6.17 6.17 0 0 0 12.36 0V27.5a56.66 56.66 0 0 1 11.6-2.5V78.4a6.17 6.17 0 0 0 12.36 0V24.98c4 .44 7.88 1.28 11.6 2.5V78.4a6.17 6.17 0 0 0 12.36 0V33.27c17.7 10.95 29.63 31.2 29.63 54.36v45.43H242.73V87.63c0-23.15 11.92-43.4 29.63-54.36z"/>
			<path d="M437.6 129h-33.94v54.67c0 56.06-45.6 101.66-101.66 101.66-56.06 0-101.66-45.6-101.66-101.66V129H166.4a12.4 12.4 0 0 0 0 24.8h9.14v29.87c0 65.54 50.13 119.6 114.06 125.84v46.7h-15.8a12.4 12.4 0 1 0 0 24.79h56.4a12.4 12.4 0 0 0 0-24.8h-15.8v-46.69c63.93-6.25 114.05-60.3 114.05-125.84v-29.88h9.15a12.4 12.4 0 1 0 0-24.79"/>
		</g>
	</symbol>
	<symbol id="headset" viewBox="0 0 450 381" preserveAspectRatio="xMidYMin">
		<path fill="#0A0F2B" fill-rule="evenodd" d="M443 293.33a60.67 60.67 0 0 0-31.94-53.4c.8-1.7 1.28-3.59 1.28-5.6v-47.62C412.34 83.76 328.6 0 225.68 0S39.02 83.76 39.02 186.7v47.64c0 1.95.44 3.79 1.21 5.45A60.67 60.67 0 0 0 8 293.33a60.7 60.7 0 0 0 54.14 60.26A28.15 28.15 0 0 0 90.24 381a28.17 28.17 0 0 0 28.13-28.14V233.8a28.17 28.17 0 0 0-28.13-28.15l-.32.02v-15.21c0-74.88 60.9-135.8 135.76-135.8 74.86 0 135.76 60.92 135.76 135.8v15.23c-.23 0-.45-.04-.68-.04a28.17 28.17 0 0 0-28.13 28.15v119.06A28.17 28.17 0 0 0 360.76 381a28.15 28.15 0 0 0 28.1-27.4A60.69 60.69 0 0 0 443 293.32zm-422.01 0a47.68 47.68 0 0 1 41.11-47.17v94.34A47.68 47.68 0 0 1 21 293.33zm84.4-59.53v119.06c0 8.35-6.8 15.15-15.15 15.15-8.35 0-15.15-6.8-15.15-15.15V233.8c0-8.36 6.8-15.16 15.15-15.16 8.35 0 15.15 6.8 15.15 15.16zM375.9 352.86c0 8.35-6.8 15.15-15.15 15.15-8.35 0-15.15-6.8-15.15-15.15V233.8c0-8.36 6.8-15.16 15.15-15.16 8.35 0 15.15 6.8 15.15 15.16v119.06zm-1.49-143.65v-18.75c0-82.04-66.72-148.79-148.74-148.79-82.02 0-148.74 66.75-148.74 148.79V209a28.3 28.3 0 0 0-11.95 12.44v-34.74c0-88.63 72.09-160.73 160.69-160.73s160.69 72.1 160.69 160.73v35.49a28.3 28.3 0 0 0-11.95-12.99zM388.9 340.5v-94.34A47.68 47.68 0 0 1 430 293.33c0 24.06-17.92 43.99-41.11 47.17z"/>
	</symbol>
	<symbol id="radio" viewBox="0 0 450 381" preserveAspectRatio="xMidYMin">
		<g fill="#0A0F2B" fill-rule="evenodd">
			<path d="M351.01 118.23H330.2c-.37-.24-.77-.48-1.17-.69L106.15 1.47A12.91 12.91 0 1 0 94.2 24.39l180.2 93.84H55.99a56.06 56.06 0 0 0-55.99 56V325c0 30.88 25.12 56 55.99 56H351A56.06 56.06 0 0 0 407 325V174.23c0-30.88-25.12-56-55.99-56zM381.16 325A30.18 30.18 0 0 1 351 355.15H56A30.18 30.18 0 0 1 25.84 325V174.23A30.19 30.19 0 0 1 56 144.08H351a30.19 30.19 0 0 1 30.15 30.15V325z"/>
			<path d="M49 262h222v-60H49v60zm12.93-12.86h196.14v-34.28H61.93v34.28zM323 202c-16.54 0-30 13.46-30 30s13.46 30 30 30 30-13.46 30-30-13.46-30-30-30zm0 47.14c-9.45 0-17.14-7.69-17.14-17.14s7.69-17.14 17.14-17.14 17.14 7.69 17.14 17.14-7.69 17.14-17.14 17.14z"/>
		</g>
	</symbol>
</svg>
